<svg width="19" height="18" viewBox="0 0 19 18" fill="none" xmlns="http://www.w3.org/2000/svg">
<path d="M13.1083 1.48926H5.6611C3.60461 1.48926 1.9375 3.15637 1.9375 5.21286V12.6601C1.9375 14.7166 3.60461 16.3837 5.6611 16.3837H13.1083C15.1648 16.3837 16.8319 14.7166 16.8319 12.6601V5.21286C16.8319 3.15637 15.1648 1.48926 13.1083 1.48926Z" stroke="white" stroke-width="0.714932" stroke-linecap="round" stroke-linejoin="round"/>
<path d="M12.3635 8.46723C12.4554 9.08702 12.3496 9.72001 12.061 10.2762C11.7724 10.8323 11.3158 11.2833 10.7562 11.565C10.1965 11.8467 9.56223 11.9448 8.94362 11.8452C8.32501 11.7457 7.75354 11.4536 7.31049 11.0106C6.86744 10.5675 6.57537 9.99605 6.47582 9.37744C6.37628 8.75882 6.47433 8.12458 6.75603 7.5649C7.03773 7.00523 7.48873 6.54863 8.04489 6.26005C8.60105 5.97147 9.23404 5.86561 9.85383 5.95752C10.486 6.05127 11.0713 6.34586 11.5233 6.79779C11.9752 7.24972 12.2698 7.83502 12.3635 8.46723Z" stroke="white" stroke-width="0.714932" stroke-linecap="round" stroke-linejoin="round"/>
<path d="M13.4805 4.84082H13.4892" stroke="white" stroke-width="0.714932" stroke-linecap="round" stroke-linejoin="round"/>
</svg>
