<svg width="33" height="32" viewBox="0 0 33 32" fill="none" xmlns="http://www.w3.org/2000/svg">
<path d="M23.0133 2.62061H9.90994C6.29155 2.62061 3.35828 5.55388 3.35828 9.17226V22.2756C3.35828 25.894 6.29155 28.8272 9.90994 28.8272H23.0133C26.6316 28.8272 29.5649 25.894 29.5649 22.2756V9.17226C29.5649 5.55388 26.6316 2.62061 23.0133 2.62061Z" stroke="white" stroke-width="1.25792" stroke-linecap="round" stroke-linejoin="round"/>
<path d="M21.7028 14.8983C21.8645 15.9888 21.6783 17.1026 21.1705 18.0811C20.6628 19.0597 19.8594 19.8532 18.8746 20.3489C17.8899 20.8445 16.7739 21.017 15.6855 20.8419C14.5971 20.6667 13.5916 20.1528 12.812 19.3733C12.0325 18.5937 11.5186 17.5882 11.3434 16.4998C11.1683 15.4114 11.3408 14.2954 11.8365 13.3107C12.3321 12.3259 13.1256 11.5225 14.1042 11.0148C15.0827 10.507 16.1965 10.3208 17.287 10.4825C18.3994 10.6474 19.4292 11.1658 20.2244 11.9609C21.0195 12.7561 21.5379 13.7859 21.7028 14.8983Z" stroke="white" stroke-width="1.25792" stroke-linecap="round" stroke-linejoin="round"/>
<path d="M23.6683 8.51709H23.6825" stroke="white" stroke-width="1.25792" stroke-linecap="round" stroke-linejoin="round"/>
</svg>
