<svg width="32" height="32" viewBox="0 0 32 32" fill="none" xmlns="http://www.w3.org/2000/svg">
<path d="M22.2758 2.62042H9.17245C5.55407 2.62042 2.62079 5.5537 2.62079 9.17208V22.2754C2.62079 25.8938 5.55407 28.8271 9.17245 28.8271H22.2758C25.8941 28.8271 28.8274 25.8938 28.8274 22.2754V9.17208C28.8274 5.5537 25.8941 2.62042 22.2758 2.62042Z" stroke="#1b6ff3" stroke-width="1.25792" stroke-linecap="round" stroke-linejoin="round"/>
<path d="M20.9653 14.8985C21.127 15.9891 20.9407 17.1028 20.433 18.0814C19.9252 19.0599 19.1219 19.8534 18.1371 20.3491C17.1524 20.8447 16.0364 21.0173 14.948 20.8421C13.8595 20.667 12.854 20.1531 12.0745 19.3735C11.2949 18.594 10.7811 17.5885 10.6059 16.5C10.4308 15.4116 10.6033 14.2957 11.0989 13.3109C11.5946 12.3262 12.3881 11.5228 13.3667 11.015C14.3452 10.5073 15.459 10.321 16.5495 10.4827C17.6619 10.6477 18.6917 11.166 19.4868 11.9612C20.282 12.7563 20.8004 13.7862 20.9653 14.8985Z" stroke="#1b6ff3" stroke-width="1.25792" stroke-linecap="round" stroke-linejoin="round"/>
<path d="M22.9308 8.51721H22.9449" stroke="#1b6ff3" stroke-width="1.25792" stroke-linecap="round" stroke-linejoin="round"/>
</svg>
