<svg width="201" height="32" viewBox="0 0 201 32" fill="none" xmlns="http://www.w3.org/2000/svg">
<path d="M14.608 4.4L9.154 17H6.274L0.838 4.4H3.988L7.822 13.4L11.71 4.4H14.608ZM18.6473 7.172C20.1473 7.172 21.2993 7.532 22.1033 8.252C22.9073 8.96 23.3093 10.034 23.3093 11.474V17H20.6813V15.794C20.1533 16.694 19.1693 17.144 17.7293 17.144C16.9853 17.144 16.3373 17.018 15.7853 16.766C15.2453 16.514 14.8313 16.166 14.5433 15.722C14.2553 15.278 14.1113 14.774 14.1113 14.21C14.1113 13.31 14.4473 12.602 15.1193 12.086C15.8033 11.57 16.8533 11.312 18.2693 11.312H20.5013C20.5013 10.7 20.3153 10.232 19.9433 9.908C19.5713 9.572 19.0133 9.404 18.2693 9.404C17.7533 9.404 17.2433 9.488 16.7393 9.656C16.2473 9.812 15.8273 10.028 15.4793 10.304L14.4713 8.342C14.9993 7.97 15.6293 7.682 16.3613 7.478C17.1053 7.274 17.8673 7.172 18.6473 7.172ZM18.4313 15.254C18.9113 15.254 19.3373 15.146 19.7093 14.93C20.0813 14.702 20.3453 14.372 20.5013 13.94V12.95H18.5753C17.4233 12.95 16.8473 13.328 16.8473 14.084C16.8473 14.444 16.9853 14.732 17.2613 14.948C17.5493 15.152 17.9393 15.254 18.4313 15.254ZM30.6362 17.144C29.6042 17.144 28.6742 16.934 27.8462 16.514C27.0302 16.082 26.3882 15.488 25.9202 14.732C25.4642 13.976 25.2362 13.118 25.2362 12.158C25.2362 11.198 25.4642 10.34 25.9202 9.584C26.3882 8.828 27.0302 8.24 27.8462 7.82C28.6742 7.388 29.6042 7.172 30.6362 7.172C31.6562 7.172 32.5442 7.388 33.3002 7.82C34.0682 8.24 34.6262 8.846 34.9742 9.638L32.7962 10.808C32.2922 9.92 31.5662 9.476 30.6182 9.476C29.8862 9.476 29.2802 9.716 28.8002 10.196C28.3202 10.676 28.0802 11.33 28.0802 12.158C28.0802 12.986 28.3202 13.64 28.8002 14.12C29.2802 14.6 29.8862 14.84 30.6182 14.84C31.5782 14.84 32.3042 14.396 32.7962 13.508L34.9742 14.696C34.6262 15.464 34.0682 16.064 33.3002 16.496C32.5442 16.928 31.6562 17.144 30.6362 17.144ZM41.1479 17.144C40.1159 17.144 39.1859 16.934 38.3579 16.514C37.5419 16.082 36.8999 15.488 36.4319 14.732C35.9759 13.976 35.7479 13.118 35.7479 12.158C35.7479 11.198 35.9759 10.34 36.4319 9.584C36.8999 8.828 37.5419 8.24 38.3579 7.82C39.1859 7.388 40.1159 7.172 41.1479 7.172C42.1679 7.172 43.0559 7.388 43.8119 7.82C44.5799 8.24 45.1379 8.846 45.4859 9.638L43.3079 10.808C42.8039 9.92 42.0779 9.476 41.1299 9.476C40.3979 9.476 39.7919 9.716 39.3119 10.196C38.8319 10.676 38.5919 11.33 38.5919 12.158C38.5919 12.986 38.8319 13.64 39.3119 14.12C39.7919 14.6 40.3979 14.84 41.1299 14.84C42.0899 14.84 42.8159 14.396 43.3079 13.508L45.4859 14.696C45.1379 15.464 44.5799 16.064 43.8119 16.496C43.0559 16.928 42.1679 17.144 41.1479 17.144ZM47.1026 7.316H49.9106V17H47.1026V7.316ZM48.5066 5.966C47.9906 5.966 47.5706 5.816 47.2466 5.516C46.9226 5.216 46.7606 4.844 46.7606 4.4C46.7606 3.956 46.9226 3.584 47.2466 3.284C47.5706 2.984 47.9906 2.834 48.5066 2.834C49.0226 2.834 49.4426 2.978 49.7666 3.266C50.0906 3.554 50.2526 3.914 50.2526 4.346C50.2526 4.814 50.0906 5.204 49.7666 5.516C49.4426 5.816 49.0226 5.966 48.5066 5.966ZM58.4027 7.172C59.6027 7.172 60.5687 7.532 61.3007 8.252C62.0447 8.972 62.4167 10.04 62.4167 11.456V17H59.6087V11.888C59.6087 11.12 59.4407 10.55 59.1047 10.178C58.7687 9.794 58.2827 9.602 57.6467 9.602C56.9387 9.602 56.3747 9.824 55.9547 10.268C55.5347 10.7 55.3247 11.348 55.3247 12.212V17H52.5167V7.316H55.1987V8.45C55.5707 8.042 56.0327 7.73 56.5847 7.514C57.1367 7.286 57.7427 7.172 58.4027 7.172ZM68.868 7.172C70.368 7.172 71.52 7.532 72.324 8.252C73.128 8.96 73.53 10.034 73.53 11.474V17H70.902V15.794C70.374 16.694 69.39 17.144 67.95 17.144C67.206 17.144 66.558 17.018 66.006 16.766C65.466 16.514 65.052 16.166 64.764 15.722C64.476 15.278 64.332 14.774 64.332 14.21C64.332 13.31 64.668 12.602 65.34 12.086C66.024 11.57 67.074 11.312 68.49 11.312H70.722C70.722 10.7 70.536 10.232 70.164 9.908C69.792 9.572 69.234 9.404 68.49 9.404C67.974 9.404 67.464 9.488 66.96 9.656C66.468 9.812 66.048 10.028 65.7 10.304L64.692 8.342C65.22 7.97 65.85 7.682 66.582 7.478C67.326 7.274 68.088 7.172 68.868 7.172ZM68.652 15.254C69.132 15.254 69.558 15.146 69.93 14.93C70.302 14.702 70.566 14.372 70.722 13.94V12.95H68.796C67.644 12.95 67.068 13.328 67.068 14.084C67.068 14.444 67.206 14.732 67.482 14.948C67.77 15.152 68.16 15.254 68.652 15.254ZM82.3174 16.532C82.0414 16.736 81.6994 16.892 81.2914 17C80.8954 17.096 80.4754 17.144 80.0314 17.144C78.8794 17.144 77.9854 16.85 77.3494 16.262C76.7254 15.674 76.4134 14.81 76.4134 13.67V9.692H74.9194V7.532H76.4134V5.174H79.2214V7.532H81.6334V9.692H79.2214V13.634C79.2214 14.042 79.3234 14.36 79.5274 14.588C79.7434 14.804 80.0434 14.912 80.4274 14.912C80.8714 14.912 81.2494 14.792 81.5614 14.552L82.3174 16.532ZM83.8937 7.316H86.7017V17H83.8937V7.316ZM85.2977 5.966C84.7817 5.966 84.3617 5.816 84.0377 5.516C83.7137 5.216 83.5517 4.844 83.5517 4.4C83.5517 3.956 83.7137 3.584 84.0377 3.284C84.3617 2.984 84.7817 2.834 85.2977 2.834C85.8137 2.834 86.2337 2.978 86.5577 3.266C86.8817 3.554 87.0437 3.914 87.0437 4.346C87.0437 4.814 86.8817 5.204 86.5577 5.516C86.2337 5.816 85.8137 5.966 85.2977 5.966ZM93.9157 17.144C92.8957 17.144 91.9777 16.934 91.1617 16.514C90.3577 16.082 89.7277 15.488 89.2717 14.732C88.8157 13.976 88.5877 13.118 88.5877 12.158C88.5877 11.198 88.8157 10.34 89.2717 9.584C89.7277 8.828 90.3577 8.24 91.1617 7.82C91.9777 7.388 92.8957 7.172 93.9157 7.172C94.9357 7.172 95.8477 7.388 96.6517 7.82C97.4557 8.24 98.0857 8.828 98.5417 9.584C98.9977 10.34 99.2257 11.198 99.2257 12.158C99.2257 13.118 98.9977 13.976 98.5417 14.732C98.0857 15.488 97.4557 16.082 96.6517 16.514C95.8477 16.934 94.9357 17.144 93.9157 17.144ZM93.9157 14.84C94.6357 14.84 95.2237 14.6 95.6797 14.12C96.1477 13.628 96.3817 12.974 96.3817 12.158C96.3817 11.342 96.1477 10.694 95.6797 10.214C95.2237 9.722 94.6357 9.476 93.9157 9.476C93.1957 9.476 92.6017 9.722 92.1337 10.214C91.6657 10.694 91.4317 11.342 91.4317 12.158C91.4317 12.974 91.6657 13.628 92.1337 14.12C92.6017 14.6 93.1957 14.84 93.9157 14.84ZM106.989 7.172C108.189 7.172 109.155 7.532 109.887 8.252C110.631 8.972 111.003 10.04 111.003 11.456V17H108.195V11.888C108.195 11.12 108.027 10.55 107.691 10.178C107.355 9.794 106.869 9.602 106.233 9.602C105.525 9.602 104.961 9.824 104.541 10.268C104.121 10.7 103.911 11.348 103.911 12.212V17H101.103V7.316H103.785V8.45C104.157 8.042 104.619 7.73 105.171 7.514C105.723 7.286 106.329 7.172 106.989 7.172ZM114.61 17.144C114.118 17.144 113.704 16.976 113.368 16.64C113.032 16.304 112.864 15.884 112.864 15.38C112.864 14.864 113.032 14.45 113.368 14.138C113.704 13.814 114.118 13.652 114.61 13.652C115.102 13.652 115.516 13.814 115.852 14.138C116.188 14.45 116.356 14.864 116.356 15.38C116.356 15.884 116.188 16.304 115.852 16.64C115.516 16.976 115.102 17.144 114.61 17.144ZM124.145 7.172C125.345 7.172 126.311 7.532 127.043 8.252C127.787 8.972 128.159 10.04 128.159 11.456V17H125.351V11.888C125.351 11.12 125.183 10.55 124.847 10.178C124.511 9.794 124.025 9.602 123.389 9.602C122.681 9.602 122.117 9.824 121.697 10.268C121.277 10.7 121.067 11.348 121.067 12.212V17H118.259V7.316H120.941V8.45C121.313 8.042 121.775 7.73 122.327 7.514C122.879 7.286 123.485 7.172 124.145 7.172ZM140.8 7.316V15.38C140.8 17.156 140.338 18.476 139.414 19.34C138.49 20.204 137.14 20.636 135.364 20.636C134.428 20.636 133.54 20.522 132.7 20.294C131.86 20.066 131.164 19.736 130.612 19.304L131.728 17.288C132.136 17.624 132.652 17.888 133.276 18.08C133.9 18.284 134.524 18.386 135.148 18.386C136.12 18.386 136.834 18.164 137.29 17.72C137.758 17.288 137.992 16.628 137.992 15.74V15.326C137.26 16.13 136.24 16.532 134.932 16.532C134.044 16.532 133.228 16.34 132.484 15.956C131.752 15.56 131.17 15.008 130.738 14.3C130.306 13.592 130.09 12.776 130.09 11.852C130.09 10.928 130.306 10.112 130.738 9.404C131.17 8.696 131.752 8.15 132.484 7.766C133.228 7.37 134.044 7.172 134.932 7.172C136.336 7.172 137.404 7.634 138.136 8.558V7.316H140.8ZM135.49 14.228C136.234 14.228 136.84 14.012 137.308 13.58C137.788 13.136 138.028 12.56 138.028 11.852C138.028 11.144 137.788 10.574 137.308 10.142C136.84 9.698 136.234 9.476 135.49 9.476C134.746 9.476 134.134 9.698 133.654 10.142C133.174 10.574 132.934 11.144 132.934 11.852C132.934 12.56 133.174 13.136 133.654 13.58C134.134 14.012 134.746 14.228 135.49 14.228Z" fill="white"/>
<line x1="2.19522" y1="29.8645" x2="79.4861" y2="29.8645" stroke="#1b6ff3" stroke-width="2.39044" stroke-linecap="round"/>
</svg>
