<svg width="201" height="32" viewBox="0 0 201 32" fill="none" xmlns="http://www.w3.org/2000/svg">
<path d="M6.274 17L0.838 4.4H3.988L8.74 15.56H6.886L11.71 4.4H14.608L9.154 17H6.274ZM20.6813 17V15.11L20.5013 14.696V11.312C20.5013 10.712 20.3153 10.244 19.9433 9.908C19.5833 9.572 19.0253 9.404 18.2693 9.404C17.7533 9.404 17.2433 9.488 16.7393 9.656C16.2473 9.812 15.8273 10.028 15.4793 10.304L14.4713 8.342C14.9993 7.97 15.6353 7.682 16.3793 7.478C17.1233 7.274 17.8793 7.172 18.6473 7.172C20.1233 7.172 21.2693 7.52 22.0853 8.216C22.9013 8.912 23.3093 9.998 23.3093 11.474V17H20.6813ZM17.7293 17.144C16.9733 17.144 16.3253 17.018 15.7853 16.766C15.2453 16.502 14.8313 16.148 14.5433 15.704C14.2553 15.26 14.1113 14.762 14.1113 14.21C14.1113 13.634 14.2493 13.13 14.5253 12.698C14.8133 12.266 15.2633 11.93 15.8753 11.69C16.4873 11.438 17.2853 11.312 18.2693 11.312H20.8433V12.95H18.5753C17.9153 12.95 17.4593 13.058 17.2073 13.274C16.9673 13.49 16.8473 13.76 16.8473 14.084C16.8473 14.444 16.9853 14.732 17.2613 14.948C17.5493 15.152 17.9393 15.254 18.4313 15.254C18.8993 15.254 19.3193 15.146 19.6913 14.93C20.0633 14.702 20.3333 14.372 20.5013 13.94L20.9333 15.236C20.7293 15.86 20.3573 16.334 19.8173 16.658C19.2773 16.982 18.5813 17.144 17.7293 17.144ZM30.601 17.144C29.557 17.144 28.627 16.934 27.811 16.514C26.995 16.082 26.353 15.488 25.885 14.732C25.429 13.976 25.201 13.118 25.201 12.158C25.201 11.186 25.429 10.328 25.885 9.584C26.353 8.828 26.995 8.24 27.811 7.82C28.627 7.388 29.557 7.172 30.601 7.172C31.621 7.172 32.509 7.388 33.265 7.82C34.021 8.24 34.579 8.846 34.939 9.638L32.761 10.808C32.509 10.352 32.191 10.016 31.807 9.8C31.435 9.584 31.027 9.476 30.583 9.476C30.103 9.476 29.671 9.584 29.287 9.8C28.903 10.016 28.597 10.322 28.369 10.718C28.153 11.114 28.045 11.594 28.045 12.158C28.045 12.722 28.153 13.202 28.369 13.598C28.597 13.994 28.903 14.3 29.287 14.516C29.671 14.732 30.103 14.84 30.583 14.84C31.027 14.84 31.435 14.738 31.807 14.534C32.191 14.318 32.509 13.976 32.761 13.508L34.939 14.696C34.579 15.476 34.021 16.082 33.265 16.514C32.509 16.934 31.621 17.144 30.601 17.144ZM41.1127 17.144C40.0687 17.144 39.1387 16.934 38.3227 16.514C37.5067 16.082 36.8647 15.488 36.3967 14.732C35.9407 13.976 35.7127 13.118 35.7127 12.158C35.7127 11.186 35.9407 10.328 36.3967 9.584C36.8647 8.828 37.5067 8.24 38.3227 7.82C39.1387 7.388 40.0687 7.172 41.1127 7.172C42.1327 7.172 43.0207 7.388 43.7767 7.82C44.5327 8.24 45.0907 8.846 45.4507 9.638L43.2727 10.808C43.0207 10.352 42.7027 10.016 42.3187 9.8C41.9467 9.584 41.5387 9.476 41.0947 9.476C40.6147 9.476 40.1827 9.584 39.7987 9.8C39.4147 10.016 39.1087 10.322 38.8807 10.718C38.6647 11.114 38.5567 11.594 38.5567 12.158C38.5567 12.722 38.6647 13.202 38.8807 13.598C39.1087 13.994 39.4147 14.3 39.7987 14.516C40.1827 14.732 40.6147 14.84 41.0947 14.84C41.5387 14.84 41.9467 14.738 42.3187 14.534C42.7027 14.318 43.0207 13.976 43.2727 13.508L45.4507 14.696C45.0907 15.476 44.5327 16.082 43.7767 16.514C43.0207 16.934 42.1327 17.144 41.1127 17.144ZM47.0148 17V7.316H49.8228V17H47.0148ZM48.4188 5.966C47.9028 5.966 47.4828 5.816 47.1588 5.516C46.8348 5.216 46.6728 4.844 46.6728 4.4C46.6728 3.956 46.8348 3.584 47.1588 3.284C47.4828 2.984 47.9028 2.834 48.4188 2.834C48.9348 2.834 49.3548 2.978 49.6788 3.266C50.0028 3.542 50.1648 3.902 50.1648 4.346C50.1648 4.814 50.0028 5.204 49.6788 5.516C49.3668 5.816 48.9468 5.966 48.4188 5.966ZM58.3148 7.172C59.0828 7.172 59.7668 7.328 60.3668 7.64C60.9788 7.94 61.4588 8.408 61.8068 9.044C62.1548 9.668 62.3288 10.472 62.3288 11.456V17H59.5208V11.888C59.5208 11.108 59.3468 10.532 58.9988 10.16C58.6628 9.788 58.1828 9.602 57.5588 9.602C57.1148 9.602 56.7128 9.698 56.3528 9.89C56.0048 10.07 55.7288 10.352 55.5248 10.736C55.3328 11.12 55.2368 11.612 55.2368 12.212V17H52.4288V7.316H55.1108V9.998L54.6068 9.188C54.9548 8.54 55.4528 8.042 56.1008 7.694C56.7488 7.346 57.4868 7.172 58.3148 7.172ZM70.8141 17V15.11L70.6341 14.696V11.312C70.6341 10.712 70.4481 10.244 70.0761 9.908C69.7161 9.572 69.1581 9.404 68.4021 9.404C67.8861 9.404 67.3761 9.488 66.8721 9.656C66.3801 9.812 65.9601 10.028 65.6121 10.304L64.6041 8.342C65.1321 7.97 65.7681 7.682 66.5121 7.478C67.2561 7.274 68.0121 7.172 68.7801 7.172C70.2561 7.172 71.4021 7.52 72.2181 8.216C73.0341 8.912 73.4421 9.998 73.4421 11.474V17H70.8141ZM67.8621 17.144C67.1061 17.144 66.4581 17.018 65.9181 16.766C65.3781 16.502 64.9641 16.148 64.6761 15.704C64.3881 15.26 64.2441 14.762 64.2441 14.21C64.2441 13.634 64.3821 13.13 64.6581 12.698C64.9461 12.266 65.3961 11.93 66.0081 11.69C66.6201 11.438 67.4181 11.312 68.4021 11.312H70.9761V12.95H68.7081C68.0481 12.95 67.5921 13.058 67.3401 13.274C67.1001 13.49 66.9801 13.76 66.9801 14.084C66.9801 14.444 67.1181 14.732 67.3941 14.948C67.6821 15.152 68.0721 15.254 68.5641 15.254C69.0321 15.254 69.4521 15.146 69.8241 14.93C70.1961 14.702 70.4661 14.372 70.6341 13.94L71.0661 15.236C70.8621 15.86 70.4901 16.334 69.9501 16.658C69.4101 16.982 68.7141 17.144 67.8621 17.144ZM79.9435 17.144C78.8035 17.144 77.9155 16.856 77.2795 16.28C76.6435 15.692 76.3255 14.822 76.3255 13.67V5.174H79.1335V13.634C79.1335 14.042 79.2415 14.36 79.4575 14.588C79.6735 14.804 79.9675 14.912 80.3395 14.912C80.7835 14.912 81.1615 14.792 81.4735 14.552L82.2295 16.532C81.9415 16.736 81.5935 16.892 81.1855 17C80.7895 17.096 80.3755 17.144 79.9435 17.144ZM74.8315 9.692V7.532H81.5455V9.692H74.8315ZM83.8058 17V7.316H86.6138V17H83.8058ZM85.2098 5.966C84.6938 5.966 84.2738 5.816 83.9498 5.516C83.6258 5.216 83.4638 4.844 83.4638 4.4C83.4638 3.956 83.6258 3.584 83.9498 3.284C84.2738 2.984 84.6938 2.834 85.2098 2.834C85.7258 2.834 86.1458 2.978 86.4698 3.266C86.7938 3.542 86.9558 3.902 86.9558 4.346C86.9558 4.814 86.7938 5.204 86.4698 5.516C86.1578 5.816 85.7378 5.966 85.2098 5.966ZM93.8278 17.144C92.7958 17.144 91.8778 16.928 91.0738 16.496C90.2818 16.064 89.6518 15.476 89.1838 14.732C88.7278 13.976 88.4998 13.118 88.4998 12.158C88.4998 11.186 88.7278 10.328 89.1838 9.584C89.6518 8.828 90.2818 8.24 91.0738 7.82C91.8778 7.388 92.7958 7.172 93.8278 7.172C94.8478 7.172 95.7598 7.388 96.5638 7.82C97.3678 8.24 97.9978 8.822 98.4538 9.566C98.9098 10.31 99.1378 11.174 99.1378 12.158C99.1378 13.118 98.9098 13.976 98.4538 14.732C97.9978 15.476 97.3678 16.064 96.5638 16.496C95.7598 16.928 94.8478 17.144 93.8278 17.144ZM93.8278 14.84C94.2958 14.84 94.7158 14.732 95.0878 14.516C95.4598 14.3 95.7538 13.994 95.9698 13.598C96.1858 13.19 96.2938 12.71 96.2938 12.158C96.2938 11.594 96.1858 11.114 95.9698 10.718C95.7538 10.322 95.4598 10.016 95.0878 9.8C94.7158 9.584 94.2958 9.476 93.8278 9.476C93.3598 9.476 92.9398 9.584 92.5678 9.8C92.1958 10.016 91.8958 10.322 91.6678 10.718C91.4518 11.114 91.3438 11.594 91.3438 12.158C91.3438 12.71 91.4518 13.19 91.6678 13.598C91.8958 13.994 92.1958 14.3 92.5678 14.516C92.9398 14.732 93.3598 14.84 93.8278 14.84ZM106.901 7.172C107.669 7.172 108.353 7.328 108.953 7.64C109.565 7.94 110.045 8.408 110.393 9.044C110.741 9.668 110.915 10.472 110.915 11.456V17H108.107V11.888C108.107 11.108 107.933 10.532 107.585 10.16C107.249 9.788 106.769 9.602 106.145 9.602C105.701 9.602 105.299 9.698 104.939 9.89C104.591 10.07 104.315 10.352 104.111 10.736C103.919 11.12 103.823 11.612 103.823 12.212V17H101.015V7.316H103.697V9.998L103.193 9.188C103.541 8.54 104.039 8.042 104.687 7.694C105.335 7.346 106.073 7.172 106.901 7.172ZM114.522 17.144C114.042 17.144 113.628 16.982 113.28 16.658C112.944 16.322 112.776 15.896 112.776 15.38C112.776 14.864 112.944 14.45 113.28 14.138C113.628 13.814 114.042 13.652 114.522 13.652C115.014 13.652 115.428 13.814 115.764 14.138C116.1 14.45 116.268 14.864 116.268 15.38C116.268 15.896 116.1 16.322 115.764 16.658C115.428 16.982 115.014 17.144 114.522 17.144ZM124.057 7.172C124.825 7.172 125.509 7.328 126.109 7.64C126.721 7.94 127.201 8.408 127.549 9.044C127.897 9.668 128.071 10.472 128.071 11.456V17H125.263V11.888C125.263 11.108 125.089 10.532 124.741 10.16C124.405 9.788 123.925 9.602 123.301 9.602C122.857 9.602 122.455 9.698 122.095 9.89C121.747 10.07 121.471 10.352 121.267 10.736C121.075 11.12 120.979 11.612 120.979 12.212V17H118.171V7.316H120.853V9.998L120.349 9.188C120.697 8.54 121.195 8.042 121.843 7.694C122.491 7.346 123.229 7.172 124.057 7.172ZM135.241 20.636C134.329 20.636 133.447 20.522 132.595 20.294C131.755 20.078 131.053 19.748 130.489 19.304L131.605 17.288C132.013 17.624 132.529 17.888 133.153 18.08C133.789 18.284 134.413 18.386 135.025 18.386C136.021 18.386 136.741 18.164 137.185 17.72C137.641 17.276 137.869 16.616 137.869 15.74V14.282L138.049 11.852L138.013 9.404V7.316H140.677V15.38C140.677 17.18 140.209 18.506 139.273 19.358C138.337 20.21 136.993 20.636 135.241 20.636ZM134.809 16.532C133.909 16.532 133.093 16.34 132.361 15.956C131.641 15.56 131.059 15.014 130.615 14.318C130.183 13.61 129.967 12.788 129.967 11.852C129.967 10.904 130.183 10.082 130.615 9.386C131.059 8.678 131.641 8.132 132.361 7.748C133.093 7.364 133.909 7.172 134.809 7.172C135.625 7.172 136.345 7.34 136.969 7.676C137.593 8 138.079 8.51 138.427 9.206C138.775 9.89 138.949 10.772 138.949 11.852C138.949 12.92 138.775 13.802 138.427 14.498C138.079 15.182 137.593 15.692 136.969 16.028C136.345 16.364 135.625 16.532 134.809 16.532ZM135.367 14.228C135.859 14.228 136.297 14.132 136.681 13.94C137.065 13.736 137.365 13.454 137.581 13.094C137.797 12.734 137.905 12.32 137.905 11.852C137.905 11.372 137.797 10.958 137.581 10.61C137.365 10.25 137.065 9.974 136.681 9.782C136.297 9.578 135.859 9.476 135.367 9.476C134.875 9.476 134.437 9.578 134.053 9.782C133.669 9.974 133.363 10.25 133.135 10.61C132.919 10.958 132.811 11.372 132.811 11.852C132.811 12.32 132.919 12.734 133.135 13.094C133.363 13.454 133.669 13.736 134.053 13.94C134.437 14.132 134.875 14.228 135.367 14.228Z" fill="#1b6ff3"/>
<line x1="2.19522" y1="29.8645" x2="79.4861" y2="29.8645" stroke="#0b153c" stroke-width="2.39044" stroke-linecap="round"/>
</svg>
