<svg width="252" height="44" viewBox="0 0 252 44" fill="none" xmlns="http://www.w3.org/2000/svg">
<path d="M10.376 31L0.712 8.6H6.312L14.76 28.44H11.464L20.04 8.6H25.192L15.496 31H10.376ZM35.989 31V27.64L35.669 26.904V20.888C35.669 19.8213 35.3383 18.9893 34.677 18.392C34.037 17.7947 33.045 17.496 31.701 17.496C30.7837 17.496 29.877 17.6453 28.981 17.944C28.1063 18.2213 27.3597 18.6053 26.741 19.096L24.949 15.608C25.8877 14.9467 27.0183 14.4347 28.341 14.072C29.6637 13.7093 31.0077 13.528 32.373 13.528C34.997 13.528 37.0343 14.1467 38.485 15.384C39.9357 16.6213 40.661 18.552 40.661 21.176V31H35.989ZM30.741 31.256C29.397 31.256 28.245 31.032 27.285 30.584C26.325 30.1147 25.589 29.4853 25.077 28.696C24.565 27.9067 24.309 27.0213 24.309 26.04C24.309 25.016 24.5543 24.12 25.045 23.352C25.557 22.584 26.357 21.9867 27.445 21.56C28.533 21.112 29.9517 20.888 31.701 20.888H36.277V23.8H32.245C31.0717 23.8 30.261 23.992 29.813 24.376C29.3863 24.76 29.173 25.24 29.173 25.816C29.173 26.456 29.4183 26.968 29.909 27.352C30.421 27.7147 31.1143 27.896 31.989 27.896C32.821 27.896 33.5677 27.704 34.229 27.32C34.8903 26.9147 35.3703 26.328 35.669 25.56L36.437 27.864C36.0743 28.9733 35.413 29.816 34.453 30.392C33.493 30.968 32.2557 31.256 30.741 31.256ZM53.624 31.256C51.768 31.256 50.1147 30.8827 48.664 30.136C47.2133 29.368 46.072 28.312 45.24 26.968C44.4293 25.624 44.024 24.0987 44.024 22.392C44.024 20.664 44.4293 19.1387 45.24 17.816C46.072 16.472 47.2133 15.4267 48.664 14.68C50.1147 13.912 51.768 13.528 53.624 13.528C55.4373 13.528 57.016 13.912 58.36 14.68C59.704 15.4267 60.696 16.504 61.336 17.912L57.464 19.992C57.016 19.1813 56.4507 18.584 55.768 18.2C55.1067 17.816 54.3813 17.624 53.592 17.624C52.7387 17.624 51.9707 17.816 51.288 18.2C50.6053 18.584 50.0613 19.128 49.656 19.832C49.272 20.536 49.08 21.3893 49.08 22.392C49.08 23.3947 49.272 24.248 49.656 24.952C50.0613 25.656 50.6053 26.2 51.288 26.584C51.9707 26.968 52.7387 27.16 53.592 27.16C54.3813 27.16 55.1067 26.9787 55.768 26.616C56.4507 26.232 57.016 25.624 57.464 24.792L61.336 26.904C60.696 28.2907 59.704 29.368 58.36 30.136C57.016 30.8827 55.4373 31.256 53.624 31.256ZM72.3115 31.256C70.4555 31.256 68.8022 30.8827 67.3515 30.136C65.9008 29.368 64.7595 28.312 63.9275 26.968C63.1168 25.624 62.7115 24.0987 62.7115 22.392C62.7115 20.664 63.1168 19.1387 63.9275 17.816C64.7595 16.472 65.9008 15.4267 67.3515 14.68C68.8022 13.912 70.4555 13.528 72.3115 13.528C74.1248 13.528 75.7035 13.912 77.0475 14.68C78.3915 15.4267 79.3835 16.504 80.0235 17.912L76.1515 19.992C75.7035 19.1813 75.1382 18.584 74.4555 18.2C73.7942 17.816 73.0688 17.624 72.2795 17.624C71.4262 17.624 70.6582 17.816 69.9755 18.2C69.2928 18.584 68.7488 19.128 68.3435 19.832C67.9595 20.536 67.7675 21.3893 67.7675 22.392C67.7675 23.3947 67.9595 24.248 68.3435 24.952C68.7488 25.656 69.2928 26.2 69.9755 26.584C70.6582 26.968 71.4262 27.16 72.2795 27.16C73.0688 27.16 73.7942 26.9787 74.4555 26.616C75.1382 26.232 75.7035 25.624 76.1515 24.792L80.0235 26.904C79.3835 28.2907 78.3915 29.368 77.0475 30.136C75.7035 30.8827 74.1248 31.256 72.3115 31.256ZM82.804 31V13.784H87.796V31H82.804ZM85.3 11.384C84.3827 11.384 83.636 11.1173 83.06 10.584C82.484 10.0507 82.196 9.38933 82.196 8.6C82.196 7.81067 82.484 7.14933 83.06 6.616C83.636 6.08267 84.3827 5.816 85.3 5.816C86.2173 5.816 86.964 6.072 87.54 6.584C88.116 7.07467 88.404 7.71467 88.404 8.504C88.404 9.336 88.116 10.0293 87.54 10.584C86.9853 11.1173 86.2387 11.384 85.3 11.384ZM102.893 13.528C104.258 13.528 105.474 13.8053 106.541 14.36C107.629 14.8933 108.482 15.7253 109.101 16.856C109.72 17.9653 110.029 19.3947 110.029 21.144V31H105.037V21.912C105.037 20.5253 104.728 19.5013 104.109 18.84C103.512 18.1787 102.658 17.848 101.549 17.848C100.76 17.848 100.045 18.0187 99.405 18.36C98.7863 18.68 98.2957 19.1813 97.933 19.864C97.5917 20.5467 97.421 21.4213 97.421 22.488V31H92.429V13.784H97.197V18.552L96.301 17.112C96.9197 15.96 97.805 15.0747 98.957 14.456C100.109 13.8373 101.421 13.528 102.893 13.528ZM125.114 31V27.64L124.794 26.904V20.888C124.794 19.8213 124.463 18.9893 123.802 18.392C123.162 17.7947 122.17 17.496 120.826 17.496C119.909 17.496 119.002 17.6453 118.106 17.944C117.231 18.2213 116.485 18.6053 115.866 19.096L114.074 15.608C115.013 14.9467 116.143 14.4347 117.466 14.072C118.789 13.7093 120.133 13.528 121.498 13.528C124.122 13.528 126.159 14.1467 127.61 15.384C129.061 16.6213 129.786 18.552 129.786 21.176V31H125.114ZM119.866 31.256C118.522 31.256 117.37 31.032 116.41 30.584C115.45 30.1147 114.714 29.4853 114.202 28.696C113.69 27.9067 113.434 27.0213 113.434 26.04C113.434 25.016 113.679 24.12 114.17 23.352C114.682 22.584 115.482 21.9867 116.57 21.56C117.658 21.112 119.077 20.888 120.826 20.888H125.402V23.8H121.37C120.197 23.8 119.386 23.992 118.938 24.376C118.511 24.76 118.298 25.24 118.298 25.816C118.298 26.456 118.543 26.968 119.034 27.352C119.546 27.7147 120.239 27.896 121.114 27.896C121.946 27.896 122.693 27.704 123.354 27.32C124.015 26.9147 124.495 26.328 124.794 25.56L125.562 27.864C125.199 28.9733 124.538 29.816 123.578 30.392C122.618 30.968 121.381 31.256 119.866 31.256ZM141.344 31.256C139.317 31.256 137.739 30.744 136.608 29.72C135.477 28.6747 134.912 27.128 134.912 25.08V9.976H139.904V25.016C139.904 25.7413 140.096 26.3067 140.48 26.712C140.864 27.096 141.387 27.288 142.048 27.288C142.837 27.288 143.509 27.0747 144.064 26.648L145.408 30.168C144.896 30.5307 144.277 30.808 143.552 31C142.848 31.1707 142.112 31.256 141.344 31.256ZM132.256 18.008V14.168H144.192V18.008H132.256ZM148.21 31V13.784H153.202V31H148.21ZM150.706 11.384C149.789 11.384 149.042 11.1173 148.466 10.584C147.89 10.0507 147.602 9.38933 147.602 8.6C147.602 7.81067 147.89 7.14933 148.466 6.616C149.042 6.08267 149.789 5.816 150.706 5.816C151.624 5.816 152.37 6.072 152.946 6.584C153.522 7.07467 153.81 7.71467 153.81 8.504C153.81 9.336 153.522 10.0293 152.946 10.584C152.392 11.1173 151.645 11.384 150.706 11.384ZM166.027 31.256C164.193 31.256 162.561 30.872 161.131 30.104C159.723 29.336 158.603 28.2907 157.771 26.968C156.961 25.624 156.555 24.0987 156.555 22.392C156.555 20.664 156.961 19.1387 157.771 17.816C158.603 16.472 159.723 15.4267 161.131 14.68C162.561 13.912 164.193 13.528 166.027 13.528C167.841 13.528 169.462 13.912 170.891 14.68C172.321 15.4267 173.441 16.4613 174.251 17.784C175.062 19.1067 175.467 20.6427 175.467 22.392C175.467 24.0987 175.062 25.624 174.251 26.968C173.441 28.2907 172.321 29.336 170.891 30.104C169.462 30.872 167.841 31.256 166.027 31.256ZM166.027 27.16C166.859 27.16 167.606 26.968 168.267 26.584C168.929 26.2 169.451 25.656 169.835 24.952C170.219 24.2267 170.411 23.3733 170.411 22.392C170.411 21.3893 170.219 20.536 169.835 19.832C169.451 19.128 168.929 18.584 168.267 18.2C167.606 17.816 166.859 17.624 166.027 17.624C165.195 17.624 164.449 17.816 163.787 18.2C163.126 18.584 162.593 19.128 162.187 19.832C161.803 20.536 161.611 21.3893 161.611 22.392C161.611 23.3733 161.803 24.2267 162.187 24.952C162.593 25.656 163.126 26.2 163.787 26.584C164.449 26.968 165.195 27.16 166.027 27.16ZM189.268 13.528C190.633 13.528 191.849 13.8053 192.916 14.36C194.004 14.8933 194.857 15.7253 195.476 16.856C196.095 17.9653 196.404 19.3947 196.404 21.144V31H191.412V21.912C191.412 20.5253 191.103 19.5013 190.484 18.84C189.887 18.1787 189.033 17.848 187.924 17.848C187.135 17.848 186.42 18.0187 185.78 18.36C185.161 18.68 184.671 19.1813 184.308 19.864C183.967 20.5467 183.796 21.4213 183.796 22.488V31H178.804V13.784H183.572V18.552L182.676 17.112C183.295 15.96 184.18 15.0747 185.332 14.456C186.484 13.8373 187.796 13.528 189.268 13.528ZM202.817 31.256C201.964 31.256 201.228 30.968 200.609 30.392C200.012 29.7947 199.713 29.0373 199.713 28.12C199.713 27.2027 200.012 26.4667 200.609 25.912C201.228 25.336 201.964 25.048 202.817 25.048C203.692 25.048 204.428 25.336 205.025 25.912C205.622 26.4667 205.921 27.2027 205.921 28.12C205.921 29.0373 205.622 29.7947 205.025 30.392C204.428 30.968 203.692 31.256 202.817 31.256ZM219.768 13.528C221.133 13.528 222.349 13.8053 223.416 14.36C224.504 14.8933 225.357 15.7253 225.976 16.856C226.595 17.9653 226.904 19.3947 226.904 21.144V31H221.912V21.912C221.912 20.5253 221.603 19.5013 220.984 18.84C220.387 18.1787 219.533 17.848 218.424 17.848C217.635 17.848 216.92 18.0187 216.28 18.36C215.661 18.68 215.171 19.1813 214.808 19.864C214.467 20.5467 214.296 21.4213 214.296 22.488V31H209.304V13.784H214.072V18.552L213.176 17.112C213.795 15.96 214.68 15.0747 215.832 14.456C216.984 13.8373 218.296 13.528 219.768 13.528ZM239.65 37.464C238.029 37.464 236.461 37.2613 234.946 36.856C233.453 36.472 232.205 35.8853 231.202 35.096L233.186 31.512C233.911 32.1093 234.829 32.5787 235.938 32.92C237.069 33.2827 238.178 33.464 239.266 33.464C241.037 33.464 242.317 33.0693 243.106 32.28C243.917 31.4907 244.322 30.3173 244.322 28.76V26.168L244.642 21.848L244.578 17.496V13.784H249.314V28.12C249.314 31.32 248.482 33.6773 246.818 35.192C245.154 36.7067 242.765 37.464 239.65 37.464ZM238.882 30.168C237.282 30.168 235.831 29.8267 234.53 29.144C233.25 28.44 232.215 27.4693 231.426 26.232C230.658 24.9733 230.274 23.512 230.274 21.848C230.274 20.1627 230.658 18.7013 231.426 17.464C232.215 16.2053 233.25 15.2347 234.53 14.552C235.831 13.8693 237.282 13.528 238.882 13.528C240.333 13.528 241.613 13.8267 242.722 14.424C243.831 15 244.695 15.9067 245.314 17.144C245.933 18.36 246.242 19.928 246.242 21.848C246.242 23.7467 245.933 25.3147 245.314 26.552C244.695 27.768 243.831 28.6747 242.722 29.272C241.613 29.8693 240.333 30.168 238.882 30.168ZM239.874 26.072C240.749 26.072 241.527 25.9013 242.21 25.56C242.893 25.1973 243.426 24.696 243.81 24.056C244.194 23.416 244.386 22.68 244.386 21.848C244.386 20.9947 244.194 20.2587 243.81 19.64C243.426 19 242.893 18.5093 242.21 18.168C241.527 17.8053 240.749 17.624 239.874 17.624C238.999 17.624 238.221 17.8053 237.538 18.168C236.855 18.5093 236.311 19 235.906 19.64C235.522 20.2587 235.33 20.9947 235.33 21.848C235.33 22.68 235.522 23.416 235.906 24.056C236.311 24.696 236.855 25.1973 237.538 25.56C238.221 25.9013 238.999 26.072 239.874 26.072Z" fill="#1b6ff3"/>
<line x1="2.5" y1="42.5" x2="99.5" y2="42.5" stroke="#0b153c" stroke-width="3" stroke-linecap="round"/>
</svg>
