<svg width="201" height="36" viewBox="0 0 201 36" fill="none" xmlns="http://www.w3.org/2000/svg">
<path d="M8.47092 25L0.770518 7.15139H5.23267L11.9641 22.9602H9.33785L16.1713 7.15139H20.2765L12.5506 25H8.47092ZM28.8797 25V22.3227L28.6247 21.7363V16.9426C28.6247 16.0927 28.3612 15.4297 27.8343 14.9538C27.3243 14.4778 26.5339 14.2398 25.4629 14.2398C24.732 14.2398 24.0096 14.3588 23.2956 14.5968C22.5987 14.8178 22.0037 15.1238 21.5108 15.5147L20.0829 12.7355C20.8308 12.2085 21.7317 11.8005 22.7857 11.5116C23.8396 11.2226 24.9105 11.0781 25.9984 11.0781C28.0892 11.0781 29.7126 11.571 30.8685 12.557C32.0244 13.5429 32.6024 15.0813 32.6024 17.1721V25H28.8797ZM24.698 25.204C23.6271 25.204 22.7092 25.0255 21.9442 24.6685C21.1793 24.2946 20.5928 23.7931 20.1849 23.1641C19.7769 22.5352 19.5729 21.8297 19.5729 21.0478C19.5729 20.2319 19.7684 19.5179 20.1594 18.906C20.5673 18.294 21.2048 17.8181 22.0717 17.4781C22.9386 17.1211 24.0691 16.9426 25.4629 16.9426H29.1092V19.2629H25.8964C24.9615 19.2629 24.3155 19.4159 23.9586 19.7219C23.6186 20.0279 23.4486 20.4104 23.4486 20.8693C23.4486 21.3793 23.6441 21.7873 24.0351 22.0932C24.443 22.3822 24.9955 22.5267 25.6924 22.5267C26.3554 22.5267 26.9503 22.3737 27.4773 22.0677C28.0043 21.7448 28.3867 21.2773 28.6247 20.6653L29.2367 22.5012C28.9477 23.3851 28.4207 24.0566 27.6558 24.5155C26.8908 24.9745 25.9049 25.204 24.698 25.204ZM42.9315 25.204C41.4526 25.204 40.1352 24.9065 38.9793 24.3116C37.8234 23.6996 36.9139 22.8582 36.251 21.7873C35.605 20.7163 35.2821 19.5009 35.2821 18.141C35.2821 16.7641 35.605 15.5487 36.251 14.4948C36.9139 13.4239 37.8234 12.591 38.9793 11.996C40.1352 11.3841 41.4526 11.0781 42.9315 11.0781C44.3764 11.0781 45.6343 11.3841 46.7052 11.996C47.7761 12.591 48.5665 13.4494 49.0765 14.5713L45.9912 16.2287C45.6343 15.5827 45.1838 15.1068 44.6398 14.8008C44.1129 14.4948 43.5349 14.3418 42.906 14.3418C42.226 14.3418 41.6141 14.4948 41.0701 14.8008C40.5262 15.1068 40.0927 15.5402 39.7697 16.1012C39.4637 16.6622 39.3108 17.3421 39.3108 18.141C39.3108 18.94 39.4637 19.6199 39.7697 20.1809C40.0927 20.7418 40.5262 21.1753 41.0701 21.4813C41.6141 21.7873 42.226 21.9402 42.906 21.9402C43.5349 21.9402 44.1129 21.7958 44.6398 21.5068C45.1838 21.2008 45.6343 20.7163 45.9912 20.0534L49.0765 21.7363C48.5665 22.8412 47.7761 23.6996 46.7052 24.3116C45.6343 24.9065 44.3764 25.204 42.9315 25.204ZM57.8219 25.204C56.343 25.204 55.0256 24.9065 53.8697 24.3116C52.7138 23.6996 51.8044 22.8582 51.1414 21.7873C50.4955 20.7163 50.1725 19.5009 50.1725 18.141C50.1725 16.7641 50.4955 15.5487 51.1414 14.4948C51.8044 13.4239 52.7138 12.591 53.8697 11.996C55.0256 11.3841 56.343 11.0781 57.8219 11.0781C59.2668 11.0781 60.5247 11.3841 61.5956 11.996C62.6665 12.591 63.457 13.4494 63.9669 14.5713L60.8817 16.2287C60.5247 15.5827 60.0742 15.1068 59.5303 14.8008C59.0033 14.4948 58.4254 14.3418 57.7964 14.3418C57.1165 14.3418 56.5045 14.4948 55.9606 14.8008C55.4166 15.1068 54.9831 15.5402 54.6602 16.1012C54.3542 16.6622 54.2012 17.3421 54.2012 18.141C54.2012 18.94 54.3542 19.6199 54.6602 20.1809C54.9831 20.7418 55.4166 21.1753 55.9606 21.4813C56.5045 21.7873 57.1165 21.9402 57.7964 21.9402C58.4254 21.9402 59.0033 21.7958 59.5303 21.5068C60.0742 21.2008 60.5247 20.7163 60.8817 20.0534L63.9669 21.7363C63.457 22.8412 62.6665 23.6996 61.5956 24.3116C60.5247 24.9065 59.2668 25.204 57.8219 25.204ZM66.1825 25V11.2821H70.1602V25H66.1825ZM68.1713 9.36972C67.4404 9.36972 66.8454 9.15724 66.3865 8.73227C65.9275 8.3073 65.698 7.78034 65.698 7.15139C65.698 6.52244 65.9275 5.99548 66.3865 5.57052C66.8454 5.14555 67.4404 4.93307 68.1713 4.93307C68.9023 4.93307 69.4972 5.13705 69.9562 5.54502C70.4151 5.93599 70.6446 6.44595 70.6446 7.0749C70.6446 7.73785 70.4151 8.2903 69.9562 8.73227C69.5142 9.15724 68.9193 9.36972 68.1713 9.36972ZM82.1896 11.0781C83.2776 11.0781 84.2465 11.2991 85.0964 11.741C85.9633 12.166 86.6433 12.8289 87.1363 13.7299C87.6292 14.6138 87.8757 15.7527 87.8757 17.1466V25H83.898V17.7586C83.898 16.6537 83.6515 15.8377 83.1586 15.3108C82.6826 14.7838 82.0027 14.5203 81.1187 14.5203C80.4898 14.5203 79.9203 14.6563 79.4104 14.9283C78.9174 15.1833 78.5264 15.5827 78.2375 16.1267C77.9655 16.6707 77.8295 17.3676 77.8295 18.2175V25H73.8518V11.2821H77.651V15.0813L76.9371 13.9339C77.43 13.0159 78.1355 12.3105 79.0534 11.8175C79.9713 11.3246 81.0167 11.0781 82.1896 11.0781ZM99.8956 25V22.3227L99.6406 21.7363V16.9426C99.6406 16.0927 99.3772 15.4297 98.8502 14.9538C98.3402 14.4778 97.5498 14.2398 96.4789 14.2398C95.7479 14.2398 95.0255 14.3588 94.3116 14.5968C93.6146 14.8178 93.0197 15.1238 92.5267 15.5147L91.0988 12.7355C91.8467 12.2085 92.7477 11.8005 93.8016 11.5116C94.8555 11.2226 95.9264 11.0781 97.0143 11.0781C99.1052 11.0781 100.729 11.571 101.884 12.557C103.04 13.5429 103.618 15.0813 103.618 17.1721V25H99.8956ZM95.7139 25.204C94.643 25.204 93.7251 25.0255 92.9602 24.6685C92.1952 24.2946 91.6088 23.7931 91.2008 23.1641C90.7928 22.5352 90.5888 21.8297 90.5888 21.0478C90.5888 20.2319 90.7843 19.5179 91.1753 18.906C91.5833 18.294 92.2207 17.8181 93.0876 17.4781C93.9546 17.1211 95.085 16.9426 96.4789 16.9426H100.125V19.2629H96.9123C95.9774 19.2629 95.3315 19.4159 94.9745 19.7219C94.6345 20.0279 94.4645 20.4104 94.4645 20.8693C94.4645 21.3793 94.66 21.7873 95.051 22.0932C95.459 22.3822 96.0114 22.5267 96.7084 22.5267C97.3713 22.5267 97.9663 22.3737 98.4932 22.0677C99.0202 21.7448 99.4027 21.2773 99.6406 20.6653L100.253 22.5012C99.9636 23.3851 99.4367 24.0566 98.6717 24.5155C97.9068 24.9745 96.9208 25.204 95.7139 25.204ZM112.828 25.204C111.213 25.204 109.955 24.796 109.054 23.9801C108.153 23.1471 107.703 21.9147 107.703 20.2829V8.24781H111.68V20.2319C111.68 20.8098 111.833 21.2603 112.139 21.5833C112.445 21.8892 112.862 22.0422 113.389 22.0422C114.018 22.0422 114.553 21.8722 114.995 21.5323L116.066 24.3371C115.658 24.626 115.165 24.847 114.587 25C114.026 25.136 113.44 25.204 112.828 25.204ZM105.586 14.6478V11.588H115.097V14.6478H105.586ZM118.299 25V11.2821H122.277V25H118.299ZM120.288 9.36972C119.557 9.36972 118.962 9.15724 118.503 8.73227C118.044 8.3073 117.815 7.78034 117.815 7.15139C117.815 6.52244 118.044 5.99548 118.503 5.57052C118.962 5.14555 119.557 4.93307 120.288 4.93307C121.019 4.93307 121.614 5.13705 122.073 5.54502C122.532 5.93599 122.761 6.44595 122.761 7.0749C122.761 7.73785 122.532 8.2903 122.073 8.73227C121.631 9.15724 121.036 9.36972 120.288 9.36972ZM132.496 25.204C131.034 25.204 129.734 24.898 128.595 24.2861C127.473 23.6741 126.58 22.8412 125.917 21.7873C125.271 20.7163 124.948 19.5009 124.948 18.141C124.948 16.7641 125.271 15.5487 125.917 14.4948C126.58 13.4239 127.473 12.591 128.595 11.996C129.734 11.3841 131.034 11.0781 132.496 11.0781C133.941 11.0781 135.233 11.3841 136.372 11.996C137.51 12.591 138.403 13.4154 139.049 14.4693C139.695 15.5232 140.018 16.7471 140.018 18.141C140.018 19.5009 139.695 20.7163 139.049 21.7873C138.403 22.8412 137.51 23.6741 136.372 24.2861C135.233 24.898 133.941 25.204 132.496 25.204ZM132.496 21.9402C133.159 21.9402 133.754 21.7873 134.281 21.4813C134.808 21.1753 135.224 20.7418 135.53 20.1809C135.836 19.6029 135.989 18.923 135.989 18.141C135.989 17.3421 135.836 16.6622 135.53 16.1012C135.224 15.5402 134.808 15.1068 134.281 14.8008C133.754 14.4948 133.159 14.3418 132.496 14.3418C131.833 14.3418 131.238 14.4948 130.711 14.8008C130.184 15.1068 129.759 15.5402 129.436 16.1012C129.13 16.6622 128.977 17.3421 128.977 18.141C128.977 18.923 129.13 19.6029 129.436 20.1809C129.759 20.7418 130.184 21.1753 130.711 21.4813C131.238 21.7873 131.833 21.9402 132.496 21.9402ZM151.014 11.0781C152.102 11.0781 153.071 11.2991 153.921 11.741C154.788 12.166 155.468 12.8289 155.961 13.7299C156.454 14.6138 156.7 15.7527 156.7 17.1466V25H152.723V17.7586C152.723 16.6537 152.476 15.8377 151.983 15.3108C151.507 14.7838 150.827 14.5203 149.943 14.5203C149.314 14.5203 148.745 14.6563 148.235 14.9283C147.742 15.1833 147.351 15.5827 147.062 16.1267C146.79 16.6707 146.654 17.3676 146.654 18.2175V25H142.676V11.2821H146.476V15.0813L145.762 13.9339C146.255 13.0159 146.96 12.3105 147.878 11.8175C148.796 11.3246 149.841 11.0781 151.014 11.0781ZM161.81 25.204C161.13 25.204 160.544 24.9745 160.051 24.5155C159.575 24.0396 159.337 23.4361 159.337 22.7052C159.337 21.9742 159.575 21.3878 160.051 20.9458C160.544 20.4869 161.13 20.2574 161.81 20.2574C162.507 20.2574 163.094 20.4869 163.57 20.9458C164.046 21.3878 164.284 21.9742 164.284 22.7052C164.284 23.4361 164.046 24.0396 163.57 24.5155C163.094 24.9745 162.507 25.204 161.81 25.204ZM175.317 11.0781C176.405 11.0781 177.374 11.2991 178.224 11.741C179.091 12.166 179.771 12.8289 180.264 13.7299C180.757 14.6138 181.003 15.7527 181.003 17.1466V25H177.026V17.7586C177.026 16.6537 176.779 15.8377 176.286 15.3108C175.81 14.7838 175.13 14.5203 174.246 14.5203C173.617 14.5203 173.048 14.6563 172.538 14.9283C172.045 15.1833 171.654 15.5827 171.365 16.1267C171.093 16.6707 170.957 17.3676 170.957 18.2175V25H166.979V11.2821H170.778V15.0813L170.065 13.9339C170.558 13.0159 171.263 12.3105 172.181 11.8175C173.099 11.3246 174.144 11.0781 175.317 11.0781ZM191.159 30.1506C189.867 30.1506 188.618 29.9891 187.411 29.6661C186.221 29.3602 185.227 28.8927 184.428 28.2637L186.009 25.408C186.587 25.8839 187.318 26.2579 188.202 26.5299C189.103 26.8189 189.986 26.9633 190.853 26.9633C192.264 26.9633 193.284 26.6489 193.913 26.0199C194.559 25.391 194.882 24.456 194.882 23.2151V21.1498L195.137 17.7076L195.086 14.2398V11.2821H198.86V22.7052C198.86 25.255 198.197 27.1333 196.871 28.3402C195.545 29.5471 193.641 30.1506 191.159 30.1506ZM190.547 24.3371C189.273 24.3371 188.117 24.0651 187.08 23.5211C186.06 22.9602 185.235 22.1867 184.606 21.2008C183.994 20.1979 183.688 19.0335 183.688 17.7076C183.688 16.3647 183.994 15.2003 184.606 14.2143C185.235 13.2114 186.06 12.438 187.08 11.894C188.117 11.3501 189.273 11.0781 190.547 11.0781C191.703 11.0781 192.723 11.3161 193.607 11.792C194.491 12.251 195.18 12.9734 195.673 13.9594C196.165 14.9283 196.412 16.1777 196.412 17.7076C196.412 19.2205 196.165 20.4699 195.673 21.4558C195.18 22.4247 194.491 23.1471 193.607 23.6231C192.723 24.0991 191.703 24.3371 190.547 24.3371ZM191.338 21.0733C192.035 21.0733 192.655 20.9373 193.199 20.6653C193.743 20.3764 194.168 19.9769 194.474 19.4669C194.78 18.957 194.933 18.3705 194.933 17.7076C194.933 17.0276 194.78 16.4412 194.474 15.9482C194.168 15.4382 193.743 15.0473 193.199 14.7753C192.655 14.4863 192.035 14.3418 191.338 14.3418C190.641 14.3418 190.02 14.4863 189.476 14.7753C188.933 15.0473 188.499 15.4382 188.176 15.9482C187.87 16.4412 187.717 17.0276 187.717 17.7076C187.717 18.3705 187.87 18.957 188.176 19.4669C188.499 19.9769 188.933 20.3764 189.476 20.6653C190.02 20.9373 190.641 21.0733 191.338 21.0733Z" fill="##1b6ff3"/>
<line x1="2.19522" y1="33.8645" x2="79.4861" y2="33.8645" stroke="#0b153c" stroke-width="2.39044" stroke-linecap="round"/>
</svg>
