<svg width="252" height="44" viewBox="0 0 252 44" fill="none" xmlns="http://www.w3.org/2000/svg">
<path d="M25.192 8.6L15.496 31H10.376L0.712 8.6H6.312L13.128 24.6L20.04 8.6H25.192ZM32.373 13.528C35.0397 13.528 37.0877 14.168 38.517 15.448C39.9463 16.7067 40.661 18.616 40.661 21.176V31H35.989V28.856C35.0503 30.456 33.301 31.256 30.741 31.256C29.4183 31.256 28.2663 31.032 27.285 30.584C26.325 30.136 25.589 29.5173 25.077 28.728C24.565 27.9387 24.309 27.0427 24.309 26.04C24.309 24.44 24.9063 23.1813 26.101 22.264C27.317 21.3467 29.1837 20.888 31.701 20.888H35.669C35.669 19.8 35.3383 18.968 34.677 18.392C34.0157 17.7947 33.0237 17.496 31.701 17.496C30.7837 17.496 29.877 17.6453 28.981 17.944C28.1063 18.2213 27.3597 18.6053 26.741 19.096L24.949 15.608C25.8877 14.9467 27.0077 14.4347 28.309 14.072C29.6317 13.7093 30.9863 13.528 32.373 13.528ZM31.989 27.896C32.8423 27.896 33.5997 27.704 34.261 27.32C34.9223 26.9147 35.3917 26.328 35.669 25.56V23.8H32.245C30.197 23.8 29.173 24.472 29.173 25.816C29.173 26.456 29.4183 26.968 29.909 27.352C30.421 27.7147 31.1143 27.896 31.989 27.896ZM53.6865 31.256C51.8518 31.256 50.1985 30.8827 48.7265 30.136C47.2758 29.368 46.1345 28.312 45.3025 26.968C44.4918 25.624 44.0865 24.0987 44.0865 22.392C44.0865 20.6853 44.4918 19.16 45.3025 17.816C46.1345 16.472 47.2758 15.4267 48.7265 14.68C50.1985 13.912 51.8518 13.528 53.6865 13.528C55.4998 13.528 57.0785 13.912 58.4225 14.68C59.7878 15.4267 60.7798 16.504 61.3985 17.912L57.5265 19.992C56.6305 18.4133 55.3398 17.624 53.6545 17.624C52.3532 17.624 51.2758 18.0507 50.4225 18.904C49.5692 19.7573 49.1425 20.92 49.1425 22.392C49.1425 23.864 49.5692 25.0267 50.4225 25.88C51.2758 26.7333 52.3532 27.16 53.6545 27.16C55.3612 27.16 56.6518 26.3707 57.5265 24.792L61.3985 26.904C60.7798 28.2693 59.7878 29.336 58.4225 30.104C57.0785 30.872 55.4998 31.256 53.6865 31.256ZM72.374 31.256C70.5393 31.256 68.886 30.8827 67.414 30.136C65.9633 29.368 64.822 28.312 63.99 26.968C63.1793 25.624 62.774 24.0987 62.774 22.392C62.774 20.6853 63.1793 19.16 63.99 17.816C64.822 16.472 65.9633 15.4267 67.414 14.68C68.886 13.912 70.5393 13.528 72.374 13.528C74.1873 13.528 75.766 13.912 77.11 14.68C78.4753 15.4267 79.4673 16.504 80.086 17.912L76.214 19.992C75.318 18.4133 74.0273 17.624 72.342 17.624C71.0407 17.624 69.9633 18.0507 69.11 18.904C68.2567 19.7573 67.83 20.92 67.83 22.392C67.83 23.864 68.2567 25.0267 69.11 25.88C69.9633 26.7333 71.0407 27.16 72.342 27.16C74.0487 27.16 75.3393 26.3707 76.214 24.792L80.086 26.904C79.4673 28.2693 78.4753 29.336 77.11 30.104C75.766 30.872 74.1873 31.256 72.374 31.256ZM82.9603 13.784H87.9523V31H82.9603V13.784ZM85.4563 11.384C84.5389 11.384 83.7923 11.1173 83.2163 10.584C82.6403 10.0507 82.3523 9.38933 82.3523 8.6C82.3523 7.81067 82.6403 7.14933 83.2163 6.616C83.7923 6.08267 84.5389 5.816 85.4563 5.816C86.3736 5.816 87.1203 6.072 87.6963 6.584C88.2723 7.096 88.5603 7.736 88.5603 8.504C88.5603 9.336 88.2723 10.0293 87.6963 10.584C87.1203 11.1173 86.3736 11.384 85.4563 11.384ZM103.049 13.528C105.183 13.528 106.9 14.168 108.201 15.448C109.524 16.728 110.185 18.6267 110.185 21.144V31H105.193V21.912C105.193 20.5467 104.895 19.5333 104.297 18.872C103.7 18.1893 102.836 17.848 101.705 17.848C100.447 17.848 99.4439 18.2427 98.6973 19.032C97.9506 19.8 97.5773 20.952 97.5773 22.488V31H92.5853V13.784H97.3533V15.8C98.0146 15.0747 98.8359 14.52 99.8173 14.136C100.799 13.7307 101.876 13.528 103.049 13.528ZM121.654 13.528C124.321 13.528 126.369 14.168 127.798 15.448C129.228 16.7067 129.942 18.616 129.942 21.176V31H125.27V28.856C124.332 30.456 122.582 31.256 120.022 31.256C118.7 31.256 117.548 31.032 116.566 30.584C115.606 30.136 114.87 29.5173 114.358 28.728C113.846 27.9387 113.59 27.0427 113.59 26.04C113.59 24.44 114.188 23.1813 115.382 22.264C116.598 21.3467 118.465 20.888 120.982 20.888H124.95C124.95 19.8 124.62 18.968 123.958 18.392C123.297 17.7947 122.305 17.496 120.982 17.496C120.065 17.496 119.158 17.6453 118.262 17.944C117.388 18.2213 116.641 18.6053 116.022 19.096L114.23 15.608C115.169 14.9467 116.289 14.4347 117.59 14.072C118.913 13.7093 120.268 13.528 121.654 13.528ZM121.27 27.896C122.124 27.896 122.881 27.704 123.542 27.32C124.204 26.9147 124.673 26.328 124.95 25.56V23.8H121.526C119.478 23.8 118.454 24.472 118.454 25.816C118.454 26.456 118.7 26.968 119.19 27.352C119.702 27.7147 120.396 27.896 121.27 27.896ZM145.564 30.168C145.074 30.5307 144.466 30.808 143.74 31C143.036 31.1707 142.29 31.256 141.5 31.256C139.452 31.256 137.863 30.7333 136.732 29.688C135.623 28.6427 135.068 27.1067 135.068 25.08V18.008H132.412V14.168H135.068V9.976H140.06V14.168H144.348V18.008H140.06V25.016C140.06 25.7413 140.242 26.3067 140.604 26.712C140.988 27.096 141.522 27.288 142.204 27.288C142.994 27.288 143.666 27.0747 144.22 26.648L145.564 30.168ZM148.367 13.784H153.359V31H148.367V13.784ZM150.863 11.384C149.945 11.384 149.199 11.1173 148.623 10.584C148.047 10.0507 147.759 9.38933 147.759 8.6C147.759 7.81067 148.047 7.14933 148.623 6.616C149.199 6.08267 149.945 5.816 150.863 5.816C151.78 5.816 152.527 6.072 153.103 6.584C153.679 7.096 153.967 7.736 153.967 8.504C153.967 9.336 153.679 10.0293 153.103 10.584C152.527 11.1173 151.78 11.384 150.863 11.384ZM166.184 31.256C164.37 31.256 162.738 30.8827 161.288 30.136C159.858 29.368 158.738 28.312 157.928 26.968C157.117 25.624 156.712 24.0987 156.712 22.392C156.712 20.6853 157.117 19.16 157.928 17.816C158.738 16.472 159.858 15.4267 161.288 14.68C162.738 13.912 164.37 13.528 166.184 13.528C167.997 13.528 169.618 13.912 171.048 14.68C172.477 15.4267 173.597 16.472 174.408 17.816C175.218 19.16 175.624 20.6853 175.624 22.392C175.624 24.0987 175.218 25.624 174.408 26.968C173.597 28.312 172.477 29.368 171.048 30.136C169.618 30.8827 167.997 31.256 166.184 31.256ZM166.184 27.16C167.464 27.16 168.509 26.7333 169.32 25.88C170.152 25.0053 170.568 23.8427 170.568 22.392C170.568 20.9413 170.152 19.7893 169.32 18.936C168.509 18.0613 167.464 17.624 166.184 17.624C164.904 17.624 163.848 18.0613 163.016 18.936C162.184 19.7893 161.768 20.9413 161.768 22.392C161.768 23.8427 162.184 25.0053 163.016 25.88C163.848 26.7333 164.904 27.16 166.184 27.16ZM189.424 13.528C191.558 13.528 193.275 14.168 194.576 15.448C195.899 16.728 196.56 18.6267 196.56 21.144V31H191.568V21.912C191.568 20.5467 191.27 19.5333 190.672 18.872C190.075 18.1893 189.211 17.848 188.08 17.848C186.822 17.848 185.819 18.2427 185.072 19.032C184.326 19.8 183.952 20.952 183.952 22.488V31H178.96V13.784H183.728V15.8C184.39 15.0747 185.211 14.52 186.192 14.136C187.174 13.7307 188.251 13.528 189.424 13.528ZM202.973 31.256C202.099 31.256 201.363 30.9573 200.765 30.36C200.168 29.7627 199.869 29.016 199.869 28.12C199.869 27.2027 200.168 26.4667 200.765 25.912C201.363 25.336 202.099 25.048 202.973 25.048C203.848 25.048 204.584 25.336 205.181 25.912C205.779 26.4667 206.077 27.2027 206.077 28.12C206.077 29.016 205.779 29.7627 205.181 30.36C204.584 30.9573 203.848 31.256 202.973 31.256ZM219.924 13.528C222.058 13.528 223.775 14.168 225.076 15.448C226.399 16.728 227.06 18.6267 227.06 21.144V31H222.068V21.912C222.068 20.5467 221.77 19.5333 221.172 18.872C220.575 18.1893 219.711 17.848 218.58 17.848C217.322 17.848 216.319 18.2427 215.572 19.032C214.826 19.8 214.452 20.952 214.452 22.488V31H209.46V13.784H214.228V15.8C214.89 15.0747 215.711 14.52 216.692 14.136C217.674 13.7307 218.751 13.528 219.924 13.528ZM249.533 13.784V28.12C249.533 31.2773 248.711 33.624 247.069 35.16C245.426 36.696 243.026 37.464 239.869 37.464C238.205 37.464 236.626 37.2613 235.133 36.856C233.639 36.4507 232.402 35.864 231.421 35.096L233.405 31.512C234.13 32.1093 235.047 32.5787 236.157 32.92C237.266 33.2827 238.375 33.464 239.485 33.464C241.213 33.464 242.482 33.0693 243.293 32.28C244.125 31.512 244.541 30.3387 244.541 28.76V28.024C243.239 29.4533 241.426 30.168 239.101 30.168C237.522 30.168 236.071 29.8267 234.749 29.144C233.447 28.44 232.413 27.4587 231.645 26.2C230.877 24.9413 230.493 23.4907 230.493 21.848C230.493 20.2053 230.877 18.7547 231.645 17.496C232.413 16.2373 233.447 15.2667 234.749 14.584C236.071 13.88 237.522 13.528 239.101 13.528C241.597 13.528 243.495 14.3493 244.797 15.992V13.784H249.533ZM240.093 26.072C241.415 26.072 242.493 25.688 243.325 24.92C244.178 24.1307 244.605 23.1067 244.605 21.848C244.605 20.5893 244.178 19.576 243.325 18.808C242.493 18.0187 241.415 17.624 240.093 17.624C238.77 17.624 237.682 18.0187 236.829 18.808C235.975 19.576 235.549 20.5893 235.549 21.848C235.549 23.1067 235.975 24.1307 236.829 24.92C237.682 25.688 238.77 26.072 240.093 26.072Z" fill="white"/>
<line x1="2.5" y1="42.5" x2="99.5" y2="42.5" stroke="#17C2EC" stroke-width="3" stroke-linecap="round"/>
</svg>
