<svg width="201" height="36" viewBox="0 0 201 36" fill="none" xmlns="http://www.w3.org/2000/svg">
<path d="M20.2765 7.15139L12.5506 25H8.47092L0.770518 7.15139H5.23267L10.6637 19.9004L16.1713 7.15139H20.2765ZM25.9984 11.0781C28.1232 11.0781 29.7551 11.588 30.894 12.608C32.0329 13.6109 32.6024 15.1323 32.6024 17.1721V25H28.8797V23.2916C28.1317 24.5665 26.7378 25.204 24.698 25.204C23.6441 25.204 22.7262 25.0255 21.9442 24.6685C21.1793 24.3116 20.5928 23.8186 20.1849 23.1896C19.7769 22.5607 19.5729 21.8467 19.5729 21.0478C19.5729 19.7729 20.0489 18.77 21.0008 18.039C21.9697 17.3081 23.4571 16.9426 25.4629 16.9426H28.6247C28.6247 16.0757 28.3612 15.4127 27.8343 14.9538C27.3073 14.4778 26.5169 14.2398 25.4629 14.2398C24.732 14.2398 24.0096 14.3588 23.2956 14.5968C22.5987 14.8178 22.0037 15.1238 21.5108 15.5147L20.0829 12.7355C20.8308 12.2085 21.7232 11.8005 22.7602 11.5116C23.8141 11.2226 24.8935 11.0781 25.9984 11.0781ZM25.6924 22.5267C26.3724 22.5267 26.9758 22.3737 27.5028 22.0677C28.0297 21.7448 28.4037 21.2773 28.6247 20.6653V19.2629H25.8964C24.2645 19.2629 23.4486 19.7984 23.4486 20.8693C23.4486 21.3793 23.6441 21.7873 24.0351 22.0932C24.443 22.3822 24.9955 22.5267 25.6924 22.5267ZM42.9813 25.204C41.5194 25.204 40.202 24.9065 39.0291 24.3116C37.8732 23.6996 36.9637 22.8582 36.3008 21.7873C35.6548 20.7163 35.3319 19.5009 35.3319 18.141C35.3319 16.7811 35.6548 15.5657 36.3008 14.4948C36.9637 13.4239 37.8732 12.591 39.0291 11.996C40.202 11.3841 41.5194 11.0781 42.9813 11.0781C44.4262 11.0781 45.6841 11.3841 46.755 11.996C47.8429 12.591 48.6333 13.4494 49.1263 14.5713L46.041 16.2287C45.3271 14.9708 44.2987 14.3418 42.9558 14.3418C41.9189 14.3418 41.0604 14.6818 40.3805 15.3618C39.7005 16.0417 39.3606 16.9681 39.3606 18.141C39.3606 19.3139 39.7005 20.2404 40.3805 20.9203C41.0604 21.6003 41.9189 21.9402 42.9558 21.9402C44.3157 21.9402 45.3441 21.3113 46.041 20.0534L49.1263 21.7363C48.6333 22.8242 47.8429 23.6741 46.755 24.2861C45.6841 24.898 44.4262 25.204 42.9813 25.204ZM57.8717 25.204C56.4098 25.204 55.0924 24.9065 53.9195 24.3116C52.7636 23.6996 51.8542 22.8582 51.1912 21.7873C50.5453 20.7163 50.2223 19.5009 50.2223 18.141C50.2223 16.7811 50.5453 15.5657 51.1912 14.4948C51.8542 13.4239 52.7636 12.591 53.9195 11.996C55.0924 11.3841 56.4098 11.0781 57.8717 11.0781C59.3166 11.0781 60.5745 11.3841 61.6454 11.996C62.7333 12.591 63.5238 13.4494 64.0167 14.5713L60.9315 16.2287C60.2175 14.9708 59.1891 14.3418 57.8462 14.3418C56.8093 14.3418 55.9509 14.6818 55.2709 15.3618C54.591 16.0417 54.251 16.9681 54.251 18.141C54.251 19.3139 54.591 20.2404 55.2709 20.9203C55.9509 21.6003 56.8093 21.9402 57.8462 21.9402C59.2061 21.9402 60.2345 21.3113 60.9315 20.0534L64.0167 21.7363C63.5238 22.8242 62.7333 23.6741 61.6454 24.2861C60.5745 24.898 59.3166 25.204 57.8717 25.204ZM66.307 11.2821H70.2847V25H66.307V11.2821ZM68.2958 9.36972C67.5649 9.36972 66.9699 9.15724 66.511 8.73227C66.052 8.3073 65.8225 7.78034 65.8225 7.15139C65.8225 6.52244 66.052 5.99548 66.511 5.57052C66.9699 5.14555 67.5649 4.93307 68.2958 4.93307C69.0268 4.93307 69.6217 5.13705 70.0807 5.54502C70.5396 5.95299 70.7691 6.46295 70.7691 7.0749C70.7691 7.73785 70.5396 8.2903 70.0807 8.73227C69.6217 9.15724 69.0268 9.36972 68.2958 9.36972ZM82.3141 11.0781C84.014 11.0781 85.3824 11.588 86.4193 12.608C87.4732 13.6279 88.0002 15.1408 88.0002 17.1466V25H84.0225V17.7586C84.0225 16.6707 83.7845 15.8632 83.3086 15.3363C82.8326 14.7923 82.1442 14.5203 81.2432 14.5203C80.2403 14.5203 79.4414 14.8348 78.8464 15.4637C78.2515 16.0757 77.954 16.9936 77.954 18.2175V25H73.9763V11.2821H77.7755V12.8884C78.3025 12.3105 78.9569 11.8685 79.7388 11.5625C80.5208 11.2396 81.3792 11.0781 82.3141 11.0781ZM97.1388 11.0781C99.2637 11.0781 100.896 11.588 102.034 12.608C103.173 13.6109 103.743 15.1323 103.743 17.1721V25H100.02V23.2916C99.2722 24.5665 97.8783 25.204 95.8384 25.204C94.7845 25.204 93.8666 25.0255 93.0847 24.6685C92.3197 24.3116 91.7333 23.8186 91.3253 23.1896C90.9173 22.5607 90.7133 21.8467 90.7133 21.0478C90.7133 19.7729 91.1893 18.77 92.1412 18.039C93.1102 17.3081 94.5975 16.9426 96.6034 16.9426H99.7651C99.7651 16.0757 99.5017 15.4127 98.9747 14.9538C98.4477 14.4778 97.6573 14.2398 96.6034 14.2398C95.8724 14.2398 95.15 14.3588 94.4361 14.5968C93.7391 14.8178 93.1442 15.1238 92.6512 15.5147L91.2233 12.7355C91.9712 12.2085 92.8637 11.8005 93.9006 11.5116C94.9545 11.2226 96.0339 11.0781 97.1388 11.0781ZM96.8329 22.5267C97.5128 22.5267 98.1163 22.3737 98.6432 22.0677C99.1702 21.7448 99.5442 21.2773 99.7651 20.6653V19.2629H97.0369C95.405 19.2629 94.589 19.7984 94.589 20.8693C94.589 21.3793 94.7845 21.7873 95.1755 22.0932C95.5835 22.3822 96.1359 22.5267 96.8329 22.5267ZM116.191 24.3371C115.8 24.626 115.315 24.847 114.737 25C114.176 25.136 113.581 25.204 112.952 25.204C111.321 25.204 110.054 24.7875 109.153 23.9546C108.269 23.1216 107.827 21.8977 107.827 20.2829V14.6478H105.711V11.588H107.827V8.24781H111.805V11.588H115.222V14.6478H111.805V20.2319C111.805 20.8098 111.949 21.2603 112.238 21.5833C112.544 21.8892 112.969 22.0422 113.513 22.0422C114.142 22.0422 114.678 21.8722 115.12 21.5323L116.191 24.3371ZM118.424 11.2821H122.401V25H118.424V11.2821ZM120.412 9.36972C119.681 9.36972 119.086 9.15724 118.627 8.73227C118.169 8.3073 117.939 7.78034 117.939 7.15139C117.939 6.52244 118.169 5.99548 118.627 5.57052C119.086 5.14555 119.681 4.93307 120.412 4.93307C121.143 4.93307 121.738 5.13705 122.197 5.54502C122.656 5.95299 122.886 6.46295 122.886 7.0749C122.886 7.73785 122.656 8.2903 122.197 8.73227C121.738 9.15724 121.143 9.36972 120.412 9.36972ZM132.62 25.204C131.175 25.204 129.875 24.9065 128.719 24.3116C127.58 23.6996 126.688 22.8582 126.042 21.7873C125.396 20.7163 125.073 19.5009 125.073 18.141C125.073 16.7811 125.396 15.5657 126.042 14.4948C126.688 13.4239 127.58 12.591 128.719 11.996C129.875 11.3841 131.175 11.0781 132.62 11.0781C134.065 11.0781 135.357 11.3841 136.496 11.996C137.635 12.591 138.527 13.4239 139.173 14.4948C139.819 15.5657 140.142 16.7811 140.142 18.141C140.142 19.5009 139.819 20.7163 139.173 21.7873C138.527 22.8582 137.635 23.6996 136.496 24.3116C135.357 24.9065 134.065 25.204 132.62 25.204ZM132.62 21.9402C133.64 21.9402 134.473 21.6003 135.119 20.9203C135.782 20.2234 136.114 19.2969 136.114 18.141C136.114 16.9851 135.782 16.0672 135.119 15.3873C134.473 14.6903 133.64 14.3418 132.62 14.3418C131.6 14.3418 130.759 14.6903 130.096 15.3873C129.433 16.0672 129.102 16.9851 129.102 18.141C129.102 19.2969 129.433 20.2234 130.096 20.9203C130.759 21.6003 131.6 21.9402 132.62 21.9402ZM151.139 11.0781C152.839 11.0781 154.207 11.588 155.244 12.608C156.298 13.6279 156.825 15.1408 156.825 17.1466V25H152.847V17.7586C152.847 16.6707 152.609 15.8632 152.133 15.3363C151.657 14.7923 150.969 14.5203 150.068 14.5203C149.065 14.5203 148.266 14.8348 147.671 15.4637C147.076 16.0757 146.779 16.9936 146.779 18.2175V25H142.801V11.2821H146.6V12.8884C147.127 12.3105 147.782 11.8685 148.564 11.5625C149.345 11.2396 150.204 11.0781 151.139 11.0781ZM161.935 25.204C161.238 25.204 160.651 24.966 160.175 24.49C159.7 24.0141 159.462 23.4191 159.462 22.7052C159.462 21.9742 159.7 21.3878 160.175 20.9458C160.651 20.4869 161.238 20.2574 161.935 20.2574C162.632 20.2574 163.218 20.4869 163.694 20.9458C164.17 21.3878 164.408 21.9742 164.408 22.7052C164.408 23.4191 164.17 24.0141 163.694 24.49C163.218 24.966 162.632 25.204 161.935 25.204ZM175.442 11.0781C177.142 11.0781 178.51 11.588 179.547 12.608C180.601 13.6279 181.128 15.1408 181.128 17.1466V25H177.15V17.7586C177.15 16.6707 176.912 15.8632 176.436 15.3363C175.96 14.7923 175.272 14.5203 174.371 14.5203C173.368 14.5203 172.569 14.8348 171.974 15.4637C171.379 16.0757 171.081 16.9936 171.081 18.2175V25H167.104V11.2821H170.903V12.8884C171.43 12.3105 172.084 11.8685 172.866 11.5625C173.648 11.2396 174.507 11.0781 175.442 11.0781ZM199.034 11.2821V22.7052C199.034 25.221 198.38 27.0908 197.071 28.3147C195.762 29.5386 193.849 30.1506 191.334 30.1506C190.008 30.1506 188.75 29.9891 187.56 29.6661C186.37 29.3432 185.384 28.8757 184.602 28.2637L186.183 25.408C186.761 25.8839 187.492 26.2579 188.376 26.5299C189.26 26.8189 190.144 26.9633 191.028 26.9633C192.405 26.9633 193.416 26.6489 194.062 26.0199C194.725 25.408 195.056 24.473 195.056 23.2151V22.6287C194.019 23.7676 192.575 24.3371 190.722 24.3371C189.464 24.3371 188.308 24.0651 187.254 23.5211C186.217 22.9602 185.393 22.1782 184.781 21.1753C184.169 20.1724 183.863 19.0165 183.863 17.7076C183.863 16.3987 184.169 15.2428 184.781 14.2398C185.393 13.2369 186.217 12.4635 187.254 11.9195C188.308 11.3586 189.464 11.0781 190.722 11.0781C192.711 11.0781 194.223 11.7325 195.26 13.0414V11.2821H199.034ZM191.512 21.0733C192.566 21.0733 193.425 20.7673 194.087 20.1554C194.767 19.5264 195.107 18.7105 195.107 17.7076C195.107 16.7046 194.767 15.8972 194.087 15.2853C193.425 14.6563 192.566 14.3418 191.512 14.3418C190.458 14.3418 189.591 14.6563 188.911 15.2853C188.231 15.8972 187.891 16.7046 187.891 17.7076C187.891 18.7105 188.231 19.5264 188.911 20.1554C189.591 20.7673 190.458 21.0733 191.512 21.0733Z" fill="white"/>
<line x1="2.19522" y1="33.8645" x2="79.4861" y2="33.8645" stroke="#17C2EC" stroke-width="2.39044" stroke-linecap="round"/>
</svg>
