<svg width="21" height="20" viewBox="0 0 21 20" fill="none" xmlns="http://www.w3.org/2000/svg">
<g clip-path="url(#clip0_34_591)">
<path d="M18.4819 8.33334C18.4819 14.1667 10.9876 19.1667 10.9876 19.1667C10.9876 19.1667 3.49341 14.1667 3.49341 8.33334C3.49341 6.34422 4.28298 4.43656 5.68842 3.03004C7.09386 1.62352 9.00005 0.833344 10.9876 0.833344C12.9752 0.833344 14.8814 1.62352 16.2869 3.03004C17.6923 4.43656 18.4819 6.34422 18.4819 8.33334Z" stroke="#17C2EC" stroke-width="2" stroke-linecap="round" stroke-linejoin="round"/>
<path d="M10.9876 10.8333C12.3672 10.8333 13.4857 9.71406 13.4857 8.33334C13.4857 6.95263 12.3672 5.83334 10.9876 5.83334C9.60793 5.83334 8.4895 6.95263 8.4895 8.33334C8.4895 9.71406 9.60793 10.8333 10.9876 10.8333Z" stroke="#17C2EC" stroke-width="2" stroke-linecap="round" stroke-linejoin="round"/>
</g>
<defs>
<clipPath id="clip0_34_591">
<rect width="19.9846" height="20" fill="white" transform="translate(0.995361)"/>
</clipPath>
</defs>
</svg>
