<svg xmlns="http://www.w3.org/2000/svg" xmlns:xlink="http://www.w3.org/1999/xlink" version="1.1" width="256" height="256" viewBox="0 0 256 256" xml:space="preserve">

<defs>
</defs>
<g style="stroke: none; stroke-width: 0; stroke-dasharray: none; stroke-linecap: butt; stroke-linejoin: miter; stroke-miterlimit: 10; fill: none; fill-rule: nonzero; opacity: 1;" transform="translate(1.4065934065934016 1.4065934065934016) scale(2.81 2.81)" >
	<path d="M 45 69.5 c -13.509 0 -24.5 -10.99 -24.5 -24.5 c 0 -13.509 10.991 -24.5 24.5 -24.5 c 13.51 0 24.5 10.991 24.5 24.5 C 69.5 58.51 58.51 69.5 45 69.5 z M 45 28.5 c -9.098 0 -16.5 7.402 -16.5 16.5 c 0 9.098 7.402 16.5 16.5 16.5 c 9.098 0 16.5 -7.402 16.5 -16.5 C 61.5 35.902 54.098 28.5 45 28.5 z" style="stroke: none; stroke-width: 1; stroke-dasharray: none; stroke-linecap: butt; stroke-linejoin: miter; stroke-miterlimit: 10; fill: rgb(41,67,226); fill-rule: nonzero; opacity: 1;" transform=" matrix(1 0 0 1 0 0) " stroke-linecap="round" />
	<path d="M 45 13.507 c -2.209 0 -4 -1.791 -4 -4 V 4 c 0 -2.209 1.791 -4 4 -4 s 4 1.791 4 4 v 5.507 C 49 11.716 47.209 13.507 45 13.507 z" style="stroke: none; stroke-width: 1; stroke-dasharray: none; stroke-linecap: butt; stroke-linejoin: miter; stroke-miterlimit: 10; fill: rgb(41,67,226); fill-rule: nonzero; opacity: 1;" transform=" matrix(1 0 0 1 0 0) " stroke-linecap="round" />
	<path d="M 45 90 c -2.209 0 -4 -1.791 -4 -4 v -5.507 c 0 -2.209 1.791 -4 4 -4 s 4 1.791 4 4 V 86 C 49 88.209 47.209 90 45 90 z" style="stroke: none; stroke-width: 1; stroke-dasharray: none; stroke-linecap: butt; stroke-linejoin: miter; stroke-miterlimit: 10; fill: rgb(41,67,226); fill-rule: nonzero; opacity: 1;" transform=" matrix(1 0 0 1 0 0) " stroke-linecap="round" />
	<path d="M 9.507 49 H 4 c -2.209 0 -4 -1.791 -4 -4 s 1.791 -4 4 -4 h 5.507 c 2.209 0 4 1.791 4 4 S 11.716 49 9.507 49 z" style="stroke: none; stroke-width: 1; stroke-dasharray: none; stroke-linecap: butt; stroke-linejoin: miter; stroke-miterlimit: 10; fill: rgb(41,67,226); fill-rule: nonzero; opacity: 1;" transform=" matrix(1 0 0 1 0 0) " stroke-linecap="round" />
	<path d="M 86 49 h -5.507 c -2.209 0 -4 -1.791 -4 -4 s 1.791 -4 4 -4 H 86 c 2.209 0 4 1.791 4 4 S 88.209 49 86 49 z" style="stroke: none; stroke-width: 1; stroke-dasharray: none; stroke-linecap: butt; stroke-linejoin: miter; stroke-miterlimit: 10; fill: rgb(41,67,226); fill-rule: nonzero; opacity: 1;" transform=" matrix(1 0 0 1 0 0) " stroke-linecap="round" />
	<path d="M 70.098 23.902 c -1.023 0 -2.048 -0.391 -2.828 -1.171 c -1.563 -1.563 -1.563 -4.095 0 -5.657 l 3.894 -3.894 c 1.561 -1.562 4.096 -1.562 5.656 0 c 1.563 1.563 1.563 4.095 0 5.657 l -3.894 3.894 C 72.146 23.512 71.121 23.902 70.098 23.902 z" style="stroke: none; stroke-width: 1; stroke-dasharray: none; stroke-linecap: butt; stroke-linejoin: miter; stroke-miterlimit: 10; fill: rgb(41,67,226); fill-rule: nonzero; opacity: 1;" transform=" matrix(1 0 0 1 0 0) " stroke-linecap="round" />
	<path d="M 16.009 77.991 c -1.024 0 -2.047 -0.391 -2.829 -1.172 c -1.562 -1.562 -1.562 -4.095 0 -5.656 l 3.894 -3.894 c 1.563 -1.563 4.095 -1.563 5.657 0 c 1.562 1.562 1.562 4.095 0 5.656 l -3.894 3.894 C 18.056 77.601 17.033 77.991 16.009 77.991 z" style="stroke: none; stroke-width: 1; stroke-dasharray: none; stroke-linecap: butt; stroke-linejoin: miter; stroke-miterlimit: 10; fill: rgb(41,67,226); fill-rule: nonzero; opacity: 1;" transform=" matrix(1 0 0 1 0 0) " stroke-linecap="round" />
	<path d="M 19.902 23.902 c -1.024 0 -2.047 -0.391 -2.829 -1.171 l -3.894 -3.894 c -1.562 -1.563 -1.562 -4.095 0 -5.657 c 1.563 -1.562 4.095 -1.562 5.657 0 l 3.894 3.894 c 1.562 1.563 1.562 4.095 0 5.657 C 21.95 23.512 20.926 23.902 19.902 23.902 z" style="stroke: none; stroke-width: 1; stroke-dasharray: none; stroke-linecap: butt; stroke-linejoin: miter; stroke-miterlimit: 10; fill: rgb(41,67,226); fill-rule: nonzero; opacity: 1;" transform=" matrix(1 0 0 1 0 0) " stroke-linecap="round" />
	<path d="M 73.991 77.991 c -1.023 0 -2.048 -0.391 -2.828 -1.172 l -3.894 -3.894 c -1.563 -1.562 -1.563 -4.095 0 -5.656 c 1.561 -1.563 4.096 -1.563 5.656 0 l 3.894 3.894 c 1.563 1.562 1.563 4.095 0 5.656 C 76.039 77.601 75.015 77.991 73.991 77.991 z" style="stroke: none; stroke-width: 1; stroke-dasharray: none; stroke-linecap: butt; stroke-linejoin: miter; stroke-miterlimit: 10; fill: rgb(41,67,226); fill-rule: nonzero; opacity: 1;" transform=" matrix(1 0 0 1 0 0) " stroke-linecap="round" />
</g>
</svg>