<svg width="50" height="52" viewBox="0 0 50 52" fill="none" xmlns="http://www.w3.org/2000/svg">
<g clip-path="url(#clip0_34_116)">
<path d="M29.418 31.9482V7.57822C29.418 6.1432 28.8813 4.76696 27.9261 3.75225C26.9709 2.73754 25.6753 2.16748 24.3244 2.16748C22.9735 2.16748 21.6779 2.73754 20.7227 3.75225C19.7675 4.76696 19.2309 6.1432 19.2309 7.57822V31.9482C17.5954 33.109 16.3547 34.7977 15.692 36.765C15.0293 38.7323 14.9798 40.8738 15.5508 42.8733C16.1217 44.8728 17.2829 46.6242 18.8628 47.8689C20.4426 49.1136 22.3574 49.7855 24.3244 49.7855C26.2914 49.7855 28.2062 49.1136 29.786 47.8689C31.3659 46.6242 32.5271 44.8728 33.098 42.8733C33.669 40.8738 33.6195 38.7323 32.9568 36.765C32.2941 34.7977 31.0534 33.109 29.418 31.9482Z" stroke="white" stroke-width="2.99376" stroke-linecap="round" stroke-linejoin="round"/>
</g>
<defs>
<clipPath id="clip0_34_116">
<rect width="48.8981" height="51.9431" fill="white" transform="translate(0.894043 0.00317383)"/>
</clipPath>
</defs>
</svg>
