<svg width="29" height="30" viewBox="0 0 29 30" fill="none" xmlns="http://www.w3.org/2000/svg">
<g clip-path="url(#clip0_34_684)">
<path d="M16.4741 18.45V4.375C16.4741 3.5462 16.1642 2.75134 15.6125 2.16529C15.0608 1.57924 14.3125 1.25 13.5323 1.25C12.7521 1.25 12.0038 1.57924 11.4521 2.16529C10.9004 2.75134 10.5905 3.5462 10.5905 4.375V18.45C9.64593 19.1204 8.92935 20.0958 8.54662 21.232C8.16389 22.3682 8.1353 23.6051 8.46506 24.7599C8.79482 25.9147 9.46546 26.9262 10.3779 27.6451C11.2904 28.364 12.3963 28.7521 13.5323 28.7521C14.6683 28.7521 15.7743 28.364 16.6867 27.6451C17.5992 26.9262 18.2698 25.9147 18.5996 24.7599C18.9293 23.6051 18.9007 22.3682 18.518 21.232C18.1353 20.0958 17.4187 19.1204 16.4741 18.45Z" stroke="white" stroke-width="2.99376" stroke-linecap="round" stroke-linejoin="round"/>
</g>
<defs>
<clipPath id="clip0_34_684">
<rect width="28.2414" height="30" fill="white"/>
</clipPath>
</defs>
</svg>
