<svg width="19" height="18" viewBox="0 0 19 18" fill="none" xmlns="http://www.w3.org/2000/svg">
<g clip-path="url(#clip0_4_83)">
<path d="M18.0244 2.23423C17.3113 2.73728 16.5217 3.12202 15.686 3.37366C15.2375 2.85795 14.6414 2.49242 13.9784 2.32652C13.3154 2.16063 12.6174 2.20236 11.9788 2.44607C11.3403 2.68979 10.792 3.12373 10.4082 3.68921C10.0243 4.25469 9.82333 4.92442 9.83249 5.60782V6.35254C8.52375 6.38648 7.22692 6.09622 6.05751 5.50762C4.8881 4.91901 3.88241 4.05034 3.13001 2.97896C3.13001 2.97896 0.151122 9.68144 6.85361 12.6603C5.31988 13.7014 3.4928 14.2234 1.64056 14.1498C8.34305 17.8734 16.535 14.1498 16.535 5.58548C16.5343 5.37804 16.5144 5.17111 16.4754 4.96736C17.2355 4.21779 17.7718 3.27142 18.0244 2.23423V2.23423Z" stroke="#1b6ff3" stroke-width="0.714932" stroke-linecap="round" stroke-linejoin="round"/>
</g>
<defs>
<clipPath id="clip0_4_83">
<rect width="17.8733" height="17.8733" fill="white" transform="translate(0.895935)"/>
</clipPath>
</defs>
</svg>
