<svg width="19" height="18" viewBox="0 0 19 18" fill="none" xmlns="http://www.w3.org/2000/svg">
<g clip-path="url(#clip0_35_859)">
<path d="M18.0245 2.23405C17.3113 2.73709 16.5217 3.12184 15.6861 3.37347C15.2375 2.85776 14.6415 2.49224 13.9784 2.32634C13.3154 2.16044 12.6174 2.20217 11.9789 2.44589C11.3404 2.68961 10.7921 3.12355 10.4082 3.68903C10.0243 4.2545 9.82339 4.92423 9.83256 5.60764V6.35236C8.52381 6.38629 7.22698 6.09604 6.05757 5.50743C4.88816 4.91883 3.88247 4.05015 3.13007 2.97877C3.13007 2.97877 0.151183 9.68126 6.85367 12.6601C5.31994 13.7012 3.49286 14.2233 1.64062 14.1496C8.34311 17.8732 16.535 14.1496 16.535 5.5853C16.5344 5.37786 16.5144 5.17093 16.4755 4.96718C17.2355 4.21761 17.7719 3.27123 18.0245 2.23405V2.23405Z" stroke="white" stroke-width="0.714932" stroke-linecap="round" stroke-linejoin="round"/>
</g>
<defs>
<clipPath id="clip0_35_859">
<rect width="17.8733" height="17.8733" fill="white" transform="translate(0.895996)"/>
</clipPath>
</defs>
</svg>
