<svg width="32" height="32" viewBox="0 0 32 32" fill="none" xmlns="http://www.w3.org/2000/svg">
<path d="M30.1375 3.93115C28.8827 4.81624 27.4934 5.4932 26.023 5.93595C25.2339 5.02856 24.1851 4.38543 23.0185 4.09353C21.8519 3.80163 20.6238 3.87506 19.5003 4.30387C18.3768 4.73269 17.4121 5.49621 16.7367 6.49116C16.0613 7.48612 15.7077 8.6645 15.7238 9.86695V11.1773C13.4211 11.237 11.1393 10.7263 9.08177 9.69064C7.0242 8.655 5.25469 7.12657 3.93084 5.24148C3.93084 5.24148 -1.31048 17.0345 10.4825 22.2758C7.78391 24.1076 4.56918 25.0261 1.31018 24.8965C13.1032 31.4481 27.5168 24.8965 27.5168 9.82764C27.5156 9.46265 27.4805 9.09856 27.412 8.74006C28.7493 7.42121 29.6931 5.75606 30.1375 3.93115V3.93115Z" stroke="#1b6ff3" stroke-width="1.25792" stroke-linecap="round" stroke-linejoin="round"/>
</svg>
