<svg width="50" height="50" viewBox="0 0 50 50" fill="none" xmlns="http://www.w3.org/2000/svg">
<path d="M47.9167 6.25001C45.9216 7.65726 43.7127 8.73358 41.375 9.43751C40.1203 7.99483 38.4528 6.97229 36.598 6.50819C34.7432 6.0441 32.7906 6.16084 31.0043 6.84263C29.2181 7.52441 27.6843 8.73835 26.6104 10.3203C25.5365 11.9022 24.9744 13.7757 25 15.6875V17.7708C21.3388 17.8658 17.711 17.0538 14.4396 15.4072C11.1682 13.7606 8.35484 11.3305 6.25001 8.33335C6.25001 8.33335 -2.08332 27.0833 16.6667 35.4167C12.3761 38.3291 7.26492 39.7895 2.08334 39.5833C20.8333 50 43.75 39.5833 43.75 15.625C43.7481 15.0447 43.6923 14.4658 43.5833 13.8958C45.7096 11.799 47.2101 9.1515 47.9167 6.25001V6.25001Z" stroke="#1b6ff3" stroke-width="2" stroke-linecap="round" stroke-linejoin="round"/>
</svg>
