<svg width="32" height="32" viewBox="0 0 32 32" fill="none" xmlns="http://www.w3.org/2000/svg">
<g clip-path="url(#clip0_34_523)">
<path d="M30.6126 3.93115C29.3578 4.81624 27.9685 5.4932 26.4981 5.93595C25.709 5.02856 24.6602 4.38543 23.4936 4.09353C22.327 3.80163 21.0989 3.87506 19.9754 4.30387C18.8519 4.73269 17.8872 5.49621 17.2118 6.49116C16.5364 7.48612 16.1828 8.6645 16.1989 9.86695V11.1773C13.8962 11.237 11.6144 10.7263 9.55687 9.69064C7.4993 8.655 5.72979 7.12657 4.40594 5.24148C4.40594 5.24148 -0.835385 17.0345 10.9576 22.2758C8.25901 24.1076 5.04428 25.0261 1.78528 24.8965C13.5783 31.4481 27.9919 24.8965 27.9919 9.82764C27.9907 9.46265 27.9556 9.09856 27.8871 8.74006C29.2244 7.42121 30.1681 5.75606 30.6126 3.93115V3.93115Z" stroke="white" stroke-width="1.25792" stroke-linecap="round" stroke-linejoin="round"/>
</g>
<defs>
<clipPath id="clip0_34_523">
<rect width="31.448" height="31.448" fill="white" transform="translate(0.475098)"/>
</clipPath>
</defs>
</svg>
