<svg width="50" height="49" viewBox="0 0 50 49" fill="none" xmlns="http://www.w3.org/2000/svg">
<g clip-path="url(#clip0_34_101)">
<path d="M35.5303 42.6818V38.607C35.5303 36.4455 34.6716 34.3726 33.1433 32.8443C31.6149 31.3159 29.542 30.4573 27.3806 30.4573H11.0812C8.91977 30.4573 6.84687 31.3159 5.31851 32.8443C3.79014 34.3726 2.93152 36.4455 2.93152 38.607V42.6818" stroke="white" stroke-width="2.99376" stroke-linecap="round" stroke-linejoin="round"/>
<path d="M19.2309 22.3077C23.7318 22.3077 27.3806 18.6589 27.3806 14.158C27.3806 9.65704 23.7318 6.0083 19.2309 6.0083C14.7299 6.0083 11.0812 9.65704 11.0812 14.158C11.0812 18.6589 14.7299 22.3077 19.2309 22.3077Z" stroke="white" stroke-width="2.99376" stroke-linecap="round" stroke-linejoin="round"/>
<path d="M47.7547 42.6818V38.607C47.7534 36.8013 47.1524 35.0472 46.0461 33.62C44.9398 32.1929 43.3908 31.1736 41.6425 30.7222" stroke="white" stroke-width="2.99376" stroke-linecap="round" stroke-linejoin="round"/>
<path d="M33.4928 6.27295C35.2458 6.7218 36.7996 7.74132 37.9092 9.1708C39.0188 10.6003 39.621 12.3584 39.621 14.168C39.621 15.9775 39.0188 17.7356 37.9092 19.1651C36.7996 20.5946 35.2458 21.6141 33.4928 22.063" stroke="white" stroke-width="2.99376" stroke-linecap="round" stroke-linejoin="round"/>
</g>
<defs>
<clipPath id="clip0_34_101">
<rect width="48.8981" height="48.8981" fill="white" transform="translate(0.894043 -0.104004)"/>
</clipPath>
</defs>
</svg>
