<svg width="18" height="18" viewBox="0 0 18 18" fill="none" xmlns="http://www.w3.org/2000/svg">
<g clip-path="url(#clip0_35_861)">
<path d="M16.7861 4.78123C16.6976 4.42779 16.5175 4.10396 16.2638 3.84244C16.0101 3.58092 15.6919 3.39097 15.3413 3.29179C14.0604 2.979 8.93674 2.979 8.93674 2.979C8.93674 2.979 3.81306 2.979 2.53214 3.32158C2.18156 3.42076 1.86336 3.61071 1.60969 3.87223C1.35601 4.13375 1.17585 4.45758 1.08738 4.81102C0.852955 6.11097 0.738284 7.42969 0.74481 8.75059C0.736454 10.0814 0.851133 11.4102 1.08738 12.72C1.18491 13.0624 1.36912 13.3739 1.6222 13.6244C1.87528 13.8749 2.18869 14.0558 2.53214 14.1498C3.81306 14.4924 8.93674 14.4924 8.93674 14.4924C8.93674 14.4924 14.0604 14.4924 15.3413 14.1498C15.6919 14.0506 16.0101 13.8607 16.2638 13.5992C16.5175 13.3376 16.6976 13.0138 16.7861 12.6604C17.0187 11.3702 17.1334 10.0615 17.1287 8.75059C17.137 7.41974 17.0224 6.09097 16.7861 4.78123V4.78123Z" stroke="white" stroke-width="0.714932" stroke-linecap="round" stroke-linejoin="round"/>
<path d="M7.26123 11.1854L11.5434 8.75018L7.26123 6.31494V11.1854Z" stroke="white" stroke-width="0.714932" stroke-linecap="round" stroke-linejoin="round"/>
</g>
<defs>
<clipPath id="clip0_35_861">
<rect width="17.8733" height="17.8733" fill="white"/>
</clipPath>
</defs>
</svg>
