<svg width="32" height="32" viewBox="0 0 32 32" fill="none" xmlns="http://www.w3.org/2000/svg">
<path d="M29.5348 8.41227C29.3791 7.7904 29.0621 7.22062 28.6158 6.76048C28.1694 6.30034 27.6096 5.96613 26.9927 5.79161C24.7389 5.24127 15.7239 5.24127 15.7239 5.24127C15.7239 5.24127 6.70878 5.24127 4.45501 5.84402C3.83817 6.01854 3.2783 6.35275 2.83196 6.81289C2.38562 7.27304 2.06862 7.84282 1.91297 8.46469C1.50049 10.7519 1.29873 13.0722 1.31021 15.3963C1.29551 17.738 1.49729 20.0759 1.91297 22.3804C2.08457 22.983 2.40867 23.5311 2.85397 23.9718C3.29927 24.4125 3.85071 24.7309 4.45501 24.8962C6.70878 25.499 15.7239 25.499 15.7239 25.499C15.7239 25.499 24.7389 25.499 26.9927 24.8962C27.6096 24.7217 28.1694 24.3875 28.6158 23.9274C29.0621 23.4672 29.3791 22.8975 29.5348 22.2756C29.9441 20.0056 30.1458 17.703 30.1375 15.3963C30.1522 13.0547 29.9504 10.7168 29.5348 8.41227V8.41227Z" stroke="#1b6ff3" stroke-width="1.25792" stroke-linecap="round" stroke-linejoin="round"/>
<path d="M12.7758 19.681L20.3102 15.3962L12.7758 11.1115V19.681Z" stroke="#1b6ff3" stroke-width="1.25792" stroke-linecap="round" stroke-linejoin="round"/>
</svg>
