<svg width="32" height="32" viewBox="0 0 32 32" fill="none" xmlns="http://www.w3.org/2000/svg">
<path d="M29.5347 8.41221C29.3791 7.79034 29.0621 7.22056 28.6157 6.76042C28.1694 6.30027 27.6095 5.96607 26.9927 5.79155C24.7389 5.24121 15.7238 5.24121 15.7238 5.24121C15.7238 5.24121 6.70876 5.24121 4.45499 5.84396C3.83815 6.01848 3.27829 6.35269 2.83195 6.81283C2.38561 7.27297 2.0686 7.84276 1.91295 8.46463C1.50048 10.7519 1.29871 13.0722 1.3102 15.3963C1.29549 17.7379 1.49727 20.0759 1.91295 22.3803C2.08455 22.9829 2.40866 23.531 2.85396 23.9717C3.29926 24.4124 3.8507 24.7308 4.45499 24.8962C6.70876 25.4989 15.7238 25.4989 15.7238 25.4989C15.7238 25.4989 24.7389 25.4989 26.9927 24.8962C27.6095 24.7217 28.1694 24.3875 28.6157 23.9273C29.0621 23.4672 29.3791 22.8974 29.5347 22.2755C29.944 20.0055 30.1458 17.7029 30.1375 15.3963C30.1522 13.0547 29.9504 10.7167 29.5347 8.41221V8.41221Z" stroke="white" stroke-width="1.25792" stroke-linecap="round" stroke-linejoin="round"/>
<path d="M12.7758 19.6809L20.3102 15.3961L12.7758 11.1113V19.6809Z" stroke="white" stroke-width="1.25792" stroke-linecap="round" stroke-linejoin="round"/>
</svg>
