<svg width="18" height="18" viewBox="0 0 18 18" fill="none" xmlns="http://www.w3.org/2000/svg">
<g clip-path="url(#clip0_4_85)">
<path d="M16.786 4.78105C16.6975 4.42761 16.5174 4.10378 16.2637 3.84225C16.01 3.58073 15.6918 3.39079 15.3413 3.2916C14.0603 2.97882 8.93665 2.97882 8.93665 2.97882C8.93665 2.97882 3.81297 2.97882 2.53205 3.32139C2.18147 3.42058 1.86327 3.61052 1.6096 3.87204C1.35592 4.13356 1.17575 4.4574 1.08729 4.81083C0.852863 6.11079 0.738192 7.4295 0.744719 8.75041C0.736363 10.0813 0.851041 11.41 1.08729 12.7198C1.18482 13.0622 1.36902 13.3737 1.62211 13.6242C1.87519 13.8747 2.1886 14.0557 2.53205 14.1496C3.81297 14.4922 8.93665 14.4922 8.93665 14.4922C8.93665 14.4922 14.0603 14.4922 15.3413 14.1496C15.6918 14.0504 16.01 13.8605 16.2637 13.599C16.5174 13.3375 16.6975 13.0136 16.786 12.6602C17.0186 11.37 17.1333 10.0614 17.1286 8.75041C17.1369 7.41956 17.0223 6.09078 16.786 4.78105V4.78105Z" stroke="#1b6ff3" stroke-width="0.714932" stroke-linecap="round" stroke-linejoin="round"/>
<path d="M7.26111 11.1855L11.5433 8.7503L7.26111 6.31506V11.1855Z" stroke="#1b6ff3" stroke-width="0.714932" stroke-linecap="round" stroke-linejoin="round"/>
</g>
<defs>
<clipPath id="clip0_4_85">
<rect width="17.8733" height="17.8733" fill="white"/>
</clipPath>
</defs>
</svg>
